<svg xmlns="http://www.w3.org/2000/svg" xmlns:xlink="http://www.w3.org/1999/xlink" width="700" zoomAndPan="magnify" viewBox="0 0 525 525.000007" height="700" preserveAspectRatio="xMidYMid meet" version="1.0"><defs><clipPath id="8eb537a05c"><path d="M 11.648438 1 L 442.082031 1 L 442.082031 523 L 11.648438 523 Z M 11.648438 1 " clip-rule="nonzero"/></clipPath></defs><g clip-path="url(#8eb537a05c)"><path fill="#0a2a4a" d="M 441.792969 452.855469 L 361.753906 289.832031 C 361.871094 289.035156 361.984375 288.238281 362.089844 287.453125 C 362.792969 282.398438 363.523438 277.183594 365.53125 274.179688 C 367.503906 271.222656 372.023438 268.585938 376.398438 266.027344 C 382.875 262.238281 390.21875 257.941406 393.308594 250.5 C 396.335938 243.191406 394.214844 235.039062 392.347656 227.851562 C 391.054688 222.878906 389.714844 217.738281 390.429688 214.113281 C 391.105469 210.714844 394.226562 206.59375 397.246094 202.605469 C 401.800781 196.585938 406.972656 189.761719 406.972656 181.59375 C 406.972656 173.429688 401.800781 166.601562 397.246094 160.585938 C 394.226562 156.597656 391.105469 152.476562 390.429688 149.078125 C 389.714844 145.457031 391.054688 140.308594 392.347656 135.335938 C 394.214844 128.148438 396.335938 120.003906 393.308594 112.691406 C 390.21875 105.246094 382.875 100.953125 376.398438 97.164062 C 372.027344 94.605469 367.511719 91.96875 365.539062 89.011719 C 363.523438 86.011719 362.800781 80.785156 362.089844 75.738281 C 361.058594 68.34375 359.894531 59.96875 354.25 54.324219 C 348.605469 48.671875 340.226562 47.507812 332.835938 46.476562 C 327.78125 45.773438 322.566406 45.042969 319.5625 43.035156 C 316.605469 41.0625 313.964844 36.542969 311.40625 32.167969 C 307.617188 25.6875 303.324219 18.34375 295.882812 15.257812 C 288.5625 12.234375 280.421875 14.351562 273.234375 16.21875 C 268.269531 17.511719 263.113281 18.855469 259.492188 18.132812 C 256.09375 17.460938 251.976562 14.335938 247.988281 11.320312 C 241.96875 6.765625 235.140625 1.59375 226.976562 1.59375 C 218.8125 1.59375 211.984375 6.765625 205.964844 11.320312 C 201.976562 14.335938 197.859375 17.460938 194.460938 18.132812 C 190.832031 18.863281 185.691406 17.511719 180.71875 16.21875 C 173.53125 14.34375 165.390625 12.226562 158.070312 15.257812 C 150.628906 18.34375 146.335938 25.6875 142.546875 32.167969 C 139.988281 36.535156 137.347656 41.054688 134.390625 43.027344 C 131.394531 45.042969 126.164062 45.765625 121.113281 46.476562 C 113.71875 47.507812 105.34375 48.671875 99.699219 54.316406 C 94.054688 59.960938 92.882812 68.335938 91.855469 75.730469 C 91.152344 80.785156 90.425781 86 88.414062 89.003906 C 86.441406 91.960938 81.925781 94.597656 77.550781 97.15625 C 71.070312 100.949219 63.726562 105.242188 60.640625 112.683594 C 57.609375 119.992188 59.730469 128.144531 61.597656 135.332031 C 62.894531 140.304688 64.230469 145.445312 63.515625 149.070312 C 62.84375 152.46875 59.71875 156.589844 56.699219 160.578125 C 52.144531 166.597656 46.972656 173.425781 46.972656 181.589844 C 46.972656 189.753906 52.144531 196.582031 56.699219 202.597656 C 59.71875 206.585938 62.84375 210.707031 63.515625 214.105469 C 64.230469 217.734375 62.894531 222.875 61.597656 227.847656 C 59.730469 235.035156 57.609375 243.175781 60.640625 250.488281 C 63.726562 257.929688 71.070312 262.222656 77.550781 266.015625 C 81.917969 268.570312 86.4375 271.210938 88.410156 274.167969 C 90.425781 277.167969 91.148438 282.394531 91.855469 287.445312 C 91.96875 288.226562 92.082031 289.027344 92.199219 289.824219 L 70.785156 333.488281 C 69.273438 336.574219 70.546875 340.300781 73.632812 341.8125 C 74.519531 342.242188 75.453125 342.449219 76.367188 342.449219 C 78.667969 342.449219 80.878906 341.167969 81.960938 338.964844 L 97.8125 306.644531 C 98.378906 307.417969 99.007812 308.160156 99.703125 308.855469 C 103.890625 313.042969 109.585938 314.761719 115.269531 315.792969 L 50.84375 447.117188 L 28.09375 448.648438 L 57.261719 389.253906 C 58.78125 386.167969 57.503906 382.441406 54.417969 380.925781 C 51.332031 379.410156 47.601562 380.683594 46.089844 383.773438 L 12.171875 452.851562 C 11.191406 454.847656 11.351562 457.210938 12.589844 459.0625 C 13.828125 460.902344 15.914062 461.9375 18.179688 461.800781 L 94.070312 456.691406 L 136.5625 519.863281 C 137.726562 521.585938 139.664062 522.613281 141.730469 522.613281 C 141.867188 522.613281 142.011719 522.613281 142.152344 522.601562 C 144.367188 522.453125 146.339844 521.132812 147.316406 519.132812 L 224.699219 361.40625 C 225.453125 361.492188 226.210938 361.578125 226.988281 361.578125 C 227.765625 361.578125 228.527344 361.492188 229.277344 361.40625 L 306.660156 519.132812 C 307.636719 521.132812 309.609375 522.453125 311.824219 522.601562 C 311.96875 522.605469 312.105469 522.613281 312.25 522.613281 C 314.3125 522.613281 316.25 521.585938 317.414062 519.863281 L 359.90625 456.691406 L 435.800781 461.800781 C 438.121094 461.972656 440.148438 460.902344 441.386719 459.0625 C 442.625 457.21875 442.789062 454.847656 441.804688 452.851562 Z M 104.183594 285.734375 C 103.28125 279.292969 102.359375 272.628906 98.75 267.253906 C 95.1875 261.925781 89.417969 258.546875 83.835938 255.285156 C 78.8125 252.347656 73.621094 249.316406 72.140625 245.730469 C 70.710938 242.285156 72.203125 236.539062 73.648438 230.988281 C 75.296875 224.660156 77 218.121094 75.726562 211.695312 C 74.5 205.492188 70.496094 200.207031 66.628906 195.101562 C 63.085938 190.425781 59.425781 185.589844 59.425781 181.601562 C 59.425781 177.613281 63.085938 172.777344 66.628906 168.101562 C 70.496094 162.992188 74.5 157.710938 75.726562 151.5 C 76.996094 145.082031 75.289062 138.535156 73.648438 132.207031 C 72.203125 126.65625 70.710938 120.917969 72.140625 117.464844 C 73.628906 113.886719 78.820312 110.847656 83.835938 107.910156 C 89.417969 104.644531 95.191406 101.269531 98.757812 95.9375 C 102.359375 90.5625 103.289062 83.894531 104.183594 77.453125 C 104.980469 71.734375 105.800781 65.816406 108.496094 63.121094 C 111.191406 60.425781 117.109375 59.605469 122.828125 58.808594 C 129.269531 57.90625 135.9375 56.984375 141.3125 53.375 C 146.640625 49.808594 150.019531 44.042969 153.28125 38.460938 C 156.21875 33.4375 159.25 28.246094 162.832031 26.765625 C 166.285156 25.335938 172.03125 26.828125 177.574219 28.273438 C 183.910156 29.921875 190.453125 31.632812 196.867188 30.351562 C 203.074219 29.125 208.355469 25.121094 213.464844 21.25 C 218.140625 17.710938 222.976562 14.050781 226.964844 14.050781 C 230.953125 14.050781 235.789062 17.710938 240.460938 21.25 C 245.570312 25.121094 250.855469 29.125 257.066406 30.351562 C 263.488281 31.621094 270.03125 29.921875 276.359375 28.273438 C 281.910156 26.828125 287.640625 25.328125 291.101562 26.765625 C 294.679688 28.253906 297.714844 33.441406 300.652344 38.460938 C 303.921875 44.042969 307.292969 49.816406 312.628906 53.382812 C 318.003906 56.984375 324.667969 57.914062 331.105469 58.808594 C 336.824219 59.605469 342.75 60.433594 345.441406 63.128906 C 348.136719 65.824219 348.960938 71.742188 349.757812 77.460938 C 350.660156 83.90625 351.578125 90.566406 355.1875 95.945312 C 358.753906 101.269531 364.523438 104.648438 370.105469 107.910156 C 375.128906 110.847656 380.320312 113.878906 381.800781 117.464844 C 383.230469 120.910156 381.738281 126.65625 380.292969 132.207031 C 378.644531 138.535156 376.9375 145.078125 378.214844 151.5 C 379.441406 157.703125 383.441406 162.988281 387.3125 168.097656 C 390.855469 172.769531 394.515625 177.605469 394.515625 181.59375 C 394.515625 185.585938 390.855469 190.417969 387.3125 195.09375 C 383.441406 200.203125 379.441406 205.488281 378.214844 211.695312 C 376.945312 218.113281 378.652344 224.660156 380.292969 230.988281 C 381.738281 236.539062 383.230469 242.277344 381.800781 245.730469 C 380.3125 249.3125 375.121094 252.347656 370.105469 255.285156 C 364.523438 258.550781 358.75 261.925781 355.183594 267.257812 C 351.578125 272.636719 350.652344 279.300781 349.757812 285.742188 C 348.960938 291.460938 348.136719 297.378906 345.441406 300.074219 C 342.75 302.769531 336.832031 303.589844 331.105469 304.394531 C 324.664062 305.289062 318.003906 306.214844 312.621094 309.820312 C 307.292969 313.386719 303.914062 319.15625 300.652344 324.738281 C 297.714844 329.757812 294.6875 334.949219 291.101562 336.429688 C 287.652344 337.867188 281.910156 336.367188 276.359375 334.925781 C 270.03125 333.28125 263.5 331.582031 257.066406 332.847656 C 250.863281 334.070312 245.578125 338.074219 240.46875 341.945312 C 235.796875 345.484375 230.960938 349.144531 226.96875 349.144531 C 222.980469 349.144531 218.144531 345.484375 213.472656 341.945312 C 208.363281 338.074219 203.078125 334.070312 196.867188 332.847656 C 195.304688 332.535156 193.730469 332.40625 192.15625 332.40625 C 187.273438 332.40625 182.363281 333.6875 177.574219 334.925781 C 172.03125 336.367188 166.300781 337.875 162.832031 336.429688 C 159.253906 334.945312 156.21875 329.753906 153.28125 324.738281 C 150.011719 319.15625 146.640625 313.378906 141.304688 309.8125 C 135.929688 306.210938 129.265625 305.28125 122.824219 304.386719 C 117.105469 303.589844 111.1875 302.769531 108.492188 300.074219 C 105.796875 297.378906 104.976562 291.460938 104.179688 285.742188 Z M 96.804688 444.039062 L 65.183594 446.167969 L 128.125 317.867188 C 130.597656 318.394531 132.8125 319.09375 134.398438 320.152344 C 137.355469 322.125 139.992188 326.640625 142.550781 331.015625 C 146.339844 337.496094 150.636719 344.839844 158.078125 347.925781 C 165.382812 350.945312 173.53125 348.832031 180.726562 346.96875 C 181.242188 346.828125 181.757812 346.707031 182.28125 346.574219 L 120.128906 473.136719 L 102.390625 446.777344 C 101.152344 444.933594 99.113281 443.90625 96.808594 444.042969 Z M 140.871094 503.992188 L 128.132812 485.054688 L 196.53125 345.773438 C 199.46875 347.003906 202.75 349.4375 205.960938 351.863281 C 208.195312 353.558594 210.546875 355.335938 213.03125 356.898438 L 140.863281 503.992188 Z M 313.082031 503.992188 L 240.917969 356.898438 C 243.40625 355.335938 245.753906 353.558594 247.988281 351.863281 C 251.203125 349.429688 254.484375 346.996094 257.414062 345.773438 L 325.816406 485.054688 L 313.074219 503.992188 Z M 357.148438 444.039062 C 354.878906 443.855469 352.804688 444.929688 351.566406 446.769531 L 333.832031 473.132812 L 271.671875 346.570312 C 272.1875 346.699219 272.710938 346.828125 273.226562 346.960938 C 280.417969 348.832031 288.554688 350.949219 295.875 347.917969 C 303.316406 344.832031 307.613281 337.488281 311.402344 331.011719 C 313.960938 326.640625 316.597656 322.125 319.554688 320.152344 C 321.136719 319.09375 323.34375 318.394531 325.808594 317.867188 L 388.777344 446.160156 L 357.148438 444.03125 Z M 403.109375 447.128906 L 338.660156 315.8125 C 344.347656 314.78125 350.054688 313.0625 354.25 308.867188 C 354.945312 308.171875 355.582031 307.425781 356.148438 306.652344 L 425.867188 448.660156 Z M 55.921875 363.664062 L 60.902344 353.582031 C 62.421875 350.5 66.140625 349.226562 69.234375 350.757812 C 72.316406 352.28125 73.578125 356.007812 72.058594 359.089844 L 67.082031 369.171875 C 66 371.367188 63.789062 372.636719 61.5 372.636719 C 60.578125 372.636719 59.636719 372.433594 58.75 371.992188 C 55.667969 370.472656 54.40625 366.738281 55.921875 363.65625 Z M 226.976562 311.300781 C 298.5 311.300781 356.683594 253.113281 356.683594 181.59375 C 356.683594 110.078125 298.496094 51.890625 226.976562 51.890625 C 155.457031 51.890625 97.269531 110.078125 97.269531 181.59375 C 97.269531 253.113281 155.457031 311.300781 226.976562 311.300781 Z M 226.976562 64.335938 C 291.636719 64.335938 344.234375 116.941406 344.234375 181.59375 C 344.234375 246.25 291.628906 298.855469 226.976562 298.855469 C 162.324219 298.855469 109.71875 246.25 109.71875 181.59375 C 109.71875 116.941406 162.324219 64.335938 226.976562 64.335938 Z M 226.976562 273.363281 C 277.578125 273.363281 318.746094 232.195312 318.746094 181.59375 C 318.746094 130.992188 277.578125 89.828125 226.976562 89.828125 C 176.375 89.828125 135.207031 130.992188 135.207031 181.59375 C 135.207031 232.195312 176.375 273.363281 226.976562 273.363281 Z M 226.976562 102.273438 C 270.714844 102.273438 306.296875 137.859375 306.296875 181.59375 C 306.296875 225.332031 270.714844 260.917969 226.976562 260.917969 C 183.238281 260.917969 147.65625 225.332031 147.65625 181.59375 C 147.65625 137.859375 183.238281 102.273438 226.976562 102.273438 Z M 190.570312 197.769531 L 187.503906 221.691406 C 186.921875 226.203125 188.847656 230.664062 192.53125 233.34375 C 194.695312 234.917969 197.265625 235.71875 199.847656 235.71875 C 201.660156 235.71875 203.476562 235.328125 205.171875 234.523438 L 226.976562 224.210938 L 248.777344 234.519531 C 252.890625 236.460938 257.726562 236.011719 261.417969 233.335938 C 265.09375 230.660156 267.023438 226.199219 266.445312 221.6875 L 263.375 197.761719 L 279.917969 180.214844 C 283.035156 176.902344 284.105469 172.160156 282.699219 167.828125 C 281.292969 163.496094 277.648438 160.285156 273.171875 159.445312 L 249.46875 154.972656 L 237.886719 133.8125 C 235.703125 129.824219 231.519531 127.347656 226.96875 127.347656 C 222.421875 127.347656 218.238281 129.824219 216.054688 133.820312 L 204.472656 154.976562 L 180.769531 159.453125 C 176.300781 160.292969 172.648438 163.503906 171.242188 167.835938 C 169.835938 172.160156 170.898438 176.910156 174.023438 180.21875 L 190.5625 197.769531 Z M 209.683594 166.660156 C 211.511719 166.316406 213.09375 165.164062 213.988281 163.535156 L 226.976562 139.792969 L 239.972656 163.535156 C 240.867188 165.171875 242.449219 166.316406 244.277344 166.660156 L 270.871094 171.679688 L 252.304688 191.378906 C 251.023438 192.734375 250.425781 194.589844 250.664062 196.4375 L 254.105469 223.273438 L 229.640625 211.710938 C 227.953125 210.914062 226.003906 210.914062 224.324219 211.710938 L 199.855469 223.277344 L 203.296875 196.4375 C 203.535156 194.589844 202.929688 192.730469 201.652344 191.378906 L 183.089844 171.679688 Z M 209.683594 166.660156 " fill-opacity="1" fill-rule="nonzero"/><path fill="#0a2a4a" d="M 441.792969 452.855469 L 361.753906 289.832031 C 361.871094 289.035156 361.984375 288.238281 362.089844 287.453125 C 362.792969 282.398438 363.523438 277.183594 365.53125 274.179688 C 367.503906 271.222656 372.023438 268.585938 376.398438 266.027344 C 382.875 262.238281 390.21875 257.941406 393.308594 250.5 C 396.335938 243.191406 394.214844 235.039062 392.347656 227.851562 C 391.054688 222.878906 389.714844 217.738281 390.429688 214.113281 C 391.105469 210.714844 394.226562 206.59375 397.246094 202.605469 C 401.800781 196.585938 406.972656 189.761719 406.972656 181.59375 C 406.972656 173.429688 401.800781 166.601562 397.246094 160.585938 C 394.226562 156.597656 391.105469 152.476562 390.429688 149.078125 C 389.714844 145.457031 391.054688 140.308594 392.347656 135.335938 C 394.214844 128.148438 396.335938 120.003906 393.308594 112.691406 C 390.21875 105.246094 382.875 100.953125 376.398438 97.164062 C 372.027344 94.605469 367.511719 91.96875 365.539062 89.011719 C 363.523438 86.011719 362.800781 80.785156 362.089844 75.738281 C 361.058594 68.34375 359.894531 59.96875 354.25 54.324219 C 348.605469 48.671875 340.226562 47.507812 332.835938 46.476562 C 327.78125 45.773438 322.566406 45.042969 319.5625 43.035156 C 316.605469 41.0625 313.964844 36.542969 311.40625 32.167969 C 307.617188 25.6875 303.324219 18.34375 295.882812 15.257812 C 288.5625 12.234375 280.421875 14.351562 273.234375 16.21875 C 268.269531 17.511719 263.113281 18.855469 259.492188 18.132812 C 256.09375 17.460938 251.976562 14.335938 247.988281 11.320312 C 241.96875 6.765625 235.140625 1.59375 226.976562 1.59375 C 218.8125 1.59375 211.984375 6.765625 205.964844 11.320312 C 201.976562 14.335938 197.859375 17.460938 194.460938 18.132812 C 190.832031 18.863281 185.691406 17.511719 180.71875 16.21875 C 173.53125 14.34375 165.390625 12.226562 158.070312 15.257812 C 150.628906 18.34375 146.335938 25.6875 142.546875 32.167969 C 139.988281 36.535156 137.347656 41.054688 134.390625 43.027344 C 131.394531 45.042969 126.164062 45.765625 121.113281 46.476562 C 113.71875 47.507812 105.34375 48.671875 99.699219 54.316406 C 94.054688 59.960938 92.882812 68.335938 91.855469 75.730469 C 91.152344 80.785156 90.425781 86 88.414062 89.003906 C 86.441406 91.960938 81.925781 94.597656 77.550781 97.15625 C 71.070312 100.949219 63.726562 105.242188 60.640625 112.683594 C 57.609375 119.992188 59.730469 128.144531 61.597656 135.332031 C 62.894531 140.304688 64.230469 145.445312 63.515625 149.070312 C 62.84375 152.46875 59.71875 156.589844 56.699219 160.578125 C 52.144531 166.597656 46.972656 173.425781 46.972656 181.589844 C 46.972656 189.753906 52.144531 196.582031 56.699219 202.597656 C 59.71875 206.585938 62.84375 210.707031 63.515625 214.105469 C 64.230469 217.734375 62.894531 222.875 61.597656 227.847656 C 59.730469 235.035156 57.609375 243.175781 60.640625 250.488281 C 63.726562 257.929688 71.070312 262.222656 77.550781 266.015625 C 81.917969 268.570312 86.4375 271.210938 88.410156 274.167969 C 90.425781 277.167969 91.148438 282.394531 91.855469 287.445312 C 91.96875 288.226562 92.082031 289.027344 92.199219 289.824219 L 70.785156 333.488281 C 69.273438 336.574219 70.546875 340.300781 73.632812 341.8125 C 74.519531 342.242188 75.453125 342.449219 76.367188 342.449219 C 78.667969 342.449219 80.878906 341.167969 81.960938 338.964844 L 97.8125 306.644531 C 98.378906 307.417969 99.007812 308.160156 99.703125 308.855469 C 103.890625 313.042969 109.585938 314.761719 115.269531 315.792969 L 50.84375 447.117188 L 28.09375 448.648438 L 57.261719 389.253906 C 58.78125 386.167969 57.503906 382.441406 54.417969 380.925781 C 51.332031 379.410156 47.601562 380.683594 46.089844 383.773438 L 12.171875 452.851562 C 11.191406 454.847656 11.351562 457.210938 12.589844 459.0625 C 13.828125 460.902344 15.914062 461.9375 18.179688 461.800781 L 94.070312 456.691406 L 136.5625 519.863281 C 137.726562 521.585938 139.664062 522.613281 141.730469 522.613281 C 141.867188 522.613281 142.011719 522.613281 142.152344 522.601562 C 144.367188 522.453125 146.339844 521.132812 147.316406 519.132812 L 224.699219 361.40625 C 225.453125 361.492188 226.210938 361.578125 226.988281 361.578125 C 227.765625 361.578125 228.527344 361.492188 229.277344 361.40625 L 306.660156 519.132812 C 307.636719 521.132812 309.609375 522.453125 311.824219 522.601562 C 311.96875 522.605469 312.105469 522.613281 312.25 522.613281 C 314.3125 522.613281 316.25 521.585938 317.414062 519.863281 L 359.90625 456.691406 L 435.800781 461.800781 C 438.121094 461.972656 440.148438 460.902344 441.386719 459.0625 C 442.625 457.21875 442.789062 454.847656 441.804688 452.851562 Z M 104.183594 285.734375 C 103.28125 279.292969 102.359375 272.628906 98.75 267.253906 C 95.1875 261.925781 89.417969 258.546875 83.835938 255.285156 C 78.8125 252.347656 73.621094 249.316406 72.140625 245.730469 C 70.710938 242.285156 72.203125 236.539062 73.648438 230.988281 C 75.296875 224.660156 77 218.121094 75.726562 211.695312 C 74.5 205.492188 70.496094 200.207031 66.628906 195.101562 C 63.085938 190.425781 59.425781 185.589844 59.425781 181.601562 C 59.425781 177.613281 63.085938 172.777344 66.628906 168.101562 C 70.496094 162.992188 74.5 157.710938 75.726562 151.5 C 76.996094 145.082031 75.289062 138.535156 73.648438 132.207031 C 72.203125 126.65625 70.710938 120.917969 72.140625 117.464844 C 73.628906 113.886719 78.820312 110.847656 83.835938 107.910156 C 89.417969 104.644531 95.191406 101.269531 98.757812 95.9375 C 102.359375 90.5625 103.289062 83.894531 104.183594 77.453125 C 104.980469 71.734375 105.800781 65.816406 108.496094 63.121094 C 111.191406 60.425781 117.109375 59.605469 122.828125 58.808594 C 129.269531 57.90625 135.9375 56.984375 141.3125 53.375 C 146.640625 49.808594 150.019531 44.042969 153.28125 38.460938 C 156.21875 33.4375 159.25 28.246094 162.832031 26.765625 C 166.285156 25.335938 172.03125 26.828125 177.574219 28.273438 C 183.910156 29.921875 190.453125 31.632812 196.867188 30.351562 C 203.074219 29.125 208.355469 25.121094 213.464844 21.25 C 218.140625 17.710938 222.976562 14.050781 226.964844 14.050781 C 230.953125 14.050781 235.789062 17.710938 240.460938 21.25 C 245.570312 25.121094 250.855469 29.125 257.066406 30.351562 C 263.488281 31.621094 270.03125 29.921875 276.359375 28.273438 C 281.910156 26.828125 287.640625 25.328125 291.101562 26.765625 C 294.679688 28.253906 297.714844 33.441406 300.652344 38.460938 C 303.921875 44.042969 307.292969 49.816406 312.628906 53.382812 C 318.003906 56.984375 324.667969 57.914062 331.105469 58.808594 C 336.824219 59.605469 342.75 60.433594 345.441406 63.128906 C 348.136719 65.824219 348.960938 71.742188 349.757812 77.460938 C 350.660156 83.90625 351.578125 90.566406 355.1875 95.945312 C 358.753906 101.269531 364.523438 104.648438 370.105469 107.910156 C 375.128906 110.847656 380.320312 113.878906 381.800781 117.464844 C 383.230469 120.910156 381.738281 126.65625 380.292969 132.207031 C 378.644531 138.535156 376.9375 145.078125 378.214844 151.5 C 379.441406 157.703125 383.441406 162.988281 387.3125 168.097656 C 390.855469 172.769531 394.515625 177.605469 394.515625 181.59375 C 394.515625 185.585938 390.855469 190.417969 387.3125 195.09375 C 383.441406 200.203125 379.441406 205.488281 378.214844 211.695312 C 376.945312 218.113281 378.652344 224.660156 380.292969 230.988281 C 381.738281 236.539062 383.230469 242.277344 381.800781 245.730469 C 380.3125 249.3125 375.121094 252.347656 370.105469 255.285156 C 364.523438 258.550781 358.75 261.925781 355.183594 267.257812 C 351.578125 272.636719 350.652344 279.300781 349.757812 285.742188 C 348.960938 291.460938 348.136719 297.378906 345.441406 300.074219 C 342.75 302.769531 336.832031 303.589844 331.105469 304.394531 C 324.664062 305.289062 318.003906 306.214844 312.621094 309.820312 C 307.292969 313.386719 303.914062 319.15625 300.652344 324.738281 C 297.714844 329.757812 294.6875 334.949219 291.101562 336.429688 C 287.652344 337.867188 281.910156 336.367188 276.359375 334.925781 C 270.03125 333.28125 263.5 331.582031 257.066406 332.847656 C 250.863281 334.070312 245.578125 338.074219 240.46875 341.945312 C 235.796875 345.484375 230.960938 349.144531 226.96875 349.144531 C 222.980469 349.144531 218.144531 345.484375 213.472656 341.945312 C 208.363281 338.074219 203.078125 334.070312 196.867188 332.847656 C 195.304688 332.535156 193.730469 332.40625 192.15625 332.40625 C 187.273438 332.40625 182.363281 333.6875 177.574219 334.925781 C 172.03125 336.367188 166.300781 337.875 162.832031 336.429688 C 159.253906 334.945312 156.21875 329.753906 153.28125 324.738281 C 150.011719 319.15625 146.640625 313.378906 141.304688 309.8125 C 135.929688 306.210938 129.265625 305.28125 122.824219 304.386719 C 117.105469 303.589844 111.1875 302.769531 108.492188 300.074219 C 105.796875 297.378906 104.976562 291.460938 104.179688 285.742188 Z M 96.804688 444.039062 L 65.183594 446.167969 L 128.125 317.867188 C 130.597656 318.394531 132.8125 319.09375 134.398438 320.152344 C 137.355469 322.125 139.992188 326.640625 142.550781 331.015625 C 146.339844 337.496094 150.636719 344.839844 158.078125 347.925781 C 165.382812 350.945312 173.53125 348.832031 180.726562 346.96875 C 181.242188 346.828125 181.757812 346.707031 182.28125 346.574219 L 120.128906 473.136719 L 102.390625 446.777344 C 101.152344 444.933594 99.113281 443.90625 96.808594 444.042969 Z M 140.871094 503.992188 L 128.132812 485.054688 L 196.53125 345.773438 C 199.46875 347.003906 202.75 349.4375 205.960938 351.863281 C 208.195312 353.558594 210.546875 355.335938 213.03125 356.898438 L 140.863281 503.992188 Z M 313.082031 503.992188 L 240.917969 356.898438 C 243.40625 355.335938 245.753906 353.558594 247.988281 351.863281 C 251.203125 349.429688 254.484375 346.996094 257.414062 345.773438 L 325.816406 485.054688 L 313.074219 503.992188 Z M 357.148438 444.039062 C 354.878906 443.855469 352.804688 444.929688 351.566406 446.769531 L 333.832031 473.132812 L 271.671875 346.570312 C 272.1875 346.699219 272.710938 346.828125 273.226562 346.960938 C 280.417969 348.832031 288.554688 350.949219 295.875 347.917969 C 303.316406 344.832031 307.613281 337.488281 311.402344 331.011719 C 313.960938 326.640625 316.597656 322.125 319.554688 320.152344 C 321.136719 319.09375 323.34375 318.394531 325.808594 317.867188 L 388.777344 446.160156 L 357.148438 444.03125 Z M 403.109375 447.128906 L 338.660156 315.8125 C 344.347656 314.78125 350.054688 313.0625 354.25 308.867188 C 354.945312 308.171875 355.582031 307.425781 356.148438 306.652344 L 425.867188 448.660156 Z M 55.921875 363.664062 L 60.902344 353.582031 C 62.421875 350.5 66.140625 349.226562 69.234375 350.757812 C 72.316406 352.28125 73.578125 356.007812 72.058594 359.089844 L 67.082031 369.171875 C 66 371.367188 63.789062 372.636719 61.5 372.636719 C 60.578125 372.636719 59.636719 372.433594 58.75 371.992188 C 55.667969 370.472656 54.40625 366.738281 55.921875 363.65625 Z M 226.976562 311.300781 C 298.5 311.300781 356.683594 253.113281 356.683594 181.59375 C 356.683594 110.078125 298.496094 51.890625 226.976562 51.890625 C 155.457031 51.890625 97.269531 110.078125 97.269531 181.59375 C 97.269531 253.113281 155.457031 311.300781 226.976562 311.300781 Z M 226.976562 64.335938 C 291.636719 64.335938 344.234375 116.941406 344.234375 181.59375 C 344.234375 246.25 291.628906 298.855469 226.976562 298.855469 C 162.324219 298.855469 109.71875 246.25 109.71875 181.59375 C 109.71875 116.941406 162.324219 64.335938 226.976562 64.335938 Z M 226.976562 273.363281 C 277.578125 273.363281 318.746094 232.195312 318.746094 181.59375 C 318.746094 130.992188 277.578125 89.828125 226.976562 89.828125 C 176.375 89.828125 135.207031 130.992188 135.207031 181.59375 C 135.207031 232.195312 176.375 273.363281 226.976562 273.363281 Z M 226.976562 102.273438 C 270.714844 102.273438 306.296875 137.859375 306.296875 181.59375 C 306.296875 225.332031 270.714844 260.917969 226.976562 260.917969 C 183.238281 260.917969 147.65625 225.332031 147.65625 181.59375 C 147.65625 137.859375 183.238281 102.273438 226.976562 102.273438 Z M 190.570312 197.769531 L 187.503906 221.691406 C 186.921875 226.203125 188.847656 230.664062 192.53125 233.34375 C 194.695312 234.917969 197.265625 235.71875 199.847656 235.71875 C 201.660156 235.71875 203.476562 235.328125 205.171875 234.523438 L 226.976562 224.210938 L 248.777344 234.519531 C 252.890625 236.460938 257.726562 236.011719 261.417969 233.335938 C 265.09375 230.660156 267.023438 226.199219 266.445312 221.6875 L 263.375 197.761719 L 279.917969 180.214844 C 283.035156 176.902344 284.105469 172.160156 282.699219 167.828125 C 281.292969 163.496094 277.648438 160.285156 273.171875 159.445312 L 249.46875 154.972656 L 237.886719 133.8125 C 235.703125 129.824219 231.519531 127.347656 226.96875 127.347656 C 222.421875 127.347656 218.238281 129.824219 216.054688 133.820312 L 204.472656 154.976562 L 180.769531 159.453125 C 176.300781 160.292969 172.648438 163.503906 171.242188 167.835938 C 169.835938 172.160156 170.898438 176.910156 174.023438 180.21875 L 190.5625 197.769531 Z M 209.683594 166.660156 C 211.511719 166.316406 213.09375 165.164062 213.988281 163.535156 L 226.976562 139.792969 L 239.972656 163.535156 C 240.867188 165.171875 242.449219 166.316406 244.277344 166.660156 L 270.871094 171.679688 L 252.304688 191.378906 C 251.023438 192.734375 250.425781 194.589844 250.664062 196.4375 L 254.105469 223.273438 L 229.640625 211.710938 C 227.953125 210.914062 226.003906 210.914062 224.324219 211.710938 L 199.855469 223.277344 L 203.296875 196.4375 C 203.535156 194.589844 202.929688 192.730469 201.652344 191.378906 L 183.089844 171.679688 Z M 209.683594 166.660156 " fill-opacity="1" fill-rule="nonzero"/></g></svg>