<svg xmlns="http://www.w3.org/2000/svg" xmlns:xlink="http://www.w3.org/1999/xlink" width="700" zoomAndPan="magnify" viewBox="0 0 525 525.000007" height="700" preserveAspectRatio="xMidYMid meet" version="1.0"><defs><clipPath id="bcac1d77c5"><path d="M 25.664062 75.492188 L 481.546875 75.492188 L 481.546875 448.28125 L 25.664062 448.28125 Z M 25.664062 75.492188 " clip-rule="nonzero"/></clipPath></defs><g clip-path="url(#bcac1d77c5)"><path fill="#0a2a4a" d="M 480.839844 346.710938 L 437.105469 157.109375 L 437.105469 129.238281 C 437.105469 119.488281 431.28125 111.082031 422.9375 107.304688 C 420.496094 89.390625 405.105469 75.535156 386.53125 75.535156 C 368.6875 75.535156 353.777344 88.304688 350.453125 105.175781 L 335.566406 105.175781 C 332.242188 88.304688 317.339844 75.535156 299.507812 75.535156 C 281.664062 75.535156 266.753906 88.304688 263.429688 105.175781 L 248.542969 105.175781 C 245.21875 88.304688 230.316406 75.535156 212.488281 75.535156 C 193.898438 75.535156 178.492188 89.394531 176.054688 107.3125 C 167.710938 111.09375 161.886719 119.496094 161.886719 129.238281 L 161.886719 265.203125 C 160.996094 266.15625 160.183594 267.199219 159.472656 268.328125 C 156.589844 272.894531 155.617188 278.277344 156.691406 283.535156 C 136.53125 298.996094 119.542969 309.292969 102.152344 316.609375 L 60.472656 326.003906 C 56.261719 326.949219 52.8125 329.378906 50.507812 333.042969 C 49.953125 333.925781 49.492188 334.839844 49.125 335.773438 L 41.324219 337.539062 C 30.535156 340.003906 23.730469 350.78125 26.15625 361.589844 L 30.617188 381.195312 C 32.710938 390.511719 41.019531 396.855469 50.214844 396.855469 C 51.675781 396.855469 53.15625 396.695312 54.640625 396.363281 L 62.367188 394.613281 C 63.136719 395.34375 63.988281 396 64.917969 396.582031 C 67.507812 398.210938 70.351562 399.039062 73.292969 399.039062 C 74.464844 399.039062 75.652344 398.90625 76.84375 398.640625 L 100.984375 440.59375 C 103.914062 445.695312 109.28125 448.558594 114.808594 448.558594 C 117.496094 448.558594 120.21875 447.882812 122.71875 446.460938 L 132.132812 441.011719 C 136.390625 438.589844 139.160156 434.589844 139.917969 429.792969 C 140.722656 424.980469 139.367188 420.304688 136.074219 416.605469 C 129.378906 409.15625 123.492188 399.945312 118.507812 389.152344 L 118.589844 389.132812 C 142.28125 388.015625 164.796875 391.78125 182.550781 395.582031 C 185.378906 404.226562 193.535156 409.984375 202.457031 409.984375 C 203.957031 409.984375 205.476562 409.824219 206.996094 409.484375 C 212.410156 408.277344 217.027344 405.015625 219.992188 400.304688 C 222.964844 395.589844 223.917969 390.011719 222.671875 384.601562 L 219.371094 370.28125 L 456.980469 370.28125 C 464.859375 370.28125 472.863281 366.617188 477.371094 360.945312 C 480.75 356.691406 481.980469 351.636719 480.839844 346.710938 Z M 177.632812 124.007812 C 182.539062 138.554688 196.304688 149.0625 212.484375 149.0625 C 216.414062 149.0625 219.601562 145.878906 219.601562 141.949219 C 219.601562 138.023438 216.414062 134.839844 212.484375 134.839844 C 202.535156 134.839844 194.078125 128.359375 191.089844 119.402344 L 263.429688 119.402344 C 266.75 136.285156 281.664062 149.0625 299.507812 149.0625 C 303.4375 149.0625 306.621094 145.878906 306.621094 141.949219 C 306.621094 138.023438 303.4375 134.839844 299.507812 134.839844 C 289.558594 134.839844 281.101562 128.359375 278.113281 119.402344 L 350.449219 119.402344 C 353.773438 136.285156 368.6875 149.0625 386.53125 149.0625 C 390.460938 149.0625 393.644531 145.878906 393.644531 141.949219 C 393.644531 138.023438 390.460938 134.839844 386.53125 134.839844 C 376.582031 134.839844 368.121094 128.359375 365.136719 119.402344 L 413.066406 119.402344 C 418.476562 119.402344 422.878906 123.8125 422.878906 129.238281 L 422.878906 160.617188 L 176.113281 160.617188 L 176.113281 129.238281 C 176.113281 127.316406 176.675781 125.523438 177.632812 124.007812 Z M 386.53125 89.761719 C 396.464844 89.761719 404.914062 96.230469 407.898438 105.175781 L 365.140625 105.175781 C 368.128906 96.230469 376.585938 89.761719 386.53125 89.761719 Z M 299.507812 89.761719 C 309.441406 89.761719 317.890625 96.230469 320.875 105.175781 L 278.117188 105.175781 C 281.105469 96.230469 289.5625 89.761719 299.507812 89.761719 Z M 212.484375 89.761719 C 222.421875 89.761719 230.867188 96.230469 233.851562 105.175781 L 191.09375 105.175781 C 194.082031 96.230469 202.539062 89.761719 212.484375 89.761719 Z M 51.511719 382.484375 C 48.347656 383.195312 45.203125 381.21875 44.492188 378.058594 L 40.03125 358.453125 C 39.324219 355.292969 41.320312 352.132812 44.476562 351.410156 L 49.632812 350.246094 L 56.679688 381.3125 Z M 71.761719 383.488281 L 62.332031 341.914062 C 62.304688 341.785156 62.285156 341.671875 62.277344 341.5625 C 62.277344 341.554688 62.277344 341.542969 62.277344 341.535156 C 62.253906 341.207031 62.335938 340.953125 62.542969 340.621094 C 62.828125 340.171875 63.066406 340.003906 63.589844 339.886719 L 98.988281 331.90625 L 109.132812 376.695312 L 107.382812 377.09375 C 107.300781 377.109375 107.222656 377.132812 107.140625 377.148438 L 78.953125 383.570312 C 78.867188 383.589844 78.785156 383.609375 78.699219 383.628906 L 73.75 384.757812 C 73.234375 384.875 72.945312 384.820312 72.464844 384.519531 C 72.078125 384.277344 71.894531 384.082031 71.761719 383.488281 Z M 125.46875 426.082031 C 125.929688 426.601562 125.972656 426.949219 125.878906 427.507812 C 125.785156 428.09375 125.605469 428.359375 125.054688 428.671875 L 115.640625 434.117188 C 114.820312 434.582031 113.78125 434.304688 113.316406 433.5 L 91.355469 395.335938 L 104.359375 392.375 C 110.183594 405.640625 117.273438 416.964844 125.46875 426.082031 Z M 123.28125 374.753906 L 112.589844 327.5625 C 131.109375 319.152344 147.136719 308.464844 160.179688 298.746094 L 178.949219 380.3125 C 162.867188 377.125 143.671875 374.351562 123.28125 374.753906 Z M 207.960938 392.71875 C 207.027344 394.199219 205.582031 395.222656 203.902344 395.597656 C 200.375 396.382812 196.714844 394.082031 195.90625 390.578125 L 195.410156 388.417969 C 195.363281 388.121094 195.296875 387.828125 195.207031 387.539062 L 170.660156 280.851562 C 170.269531 279.152344 170.566406 277.398438 171.503906 275.917969 C 172.433594 274.441406 173.875 273.421875 175.566406 273.046875 C 179.136719 272.25 182.714844 274.503906 183.53125 278.066406 L 208.804688 387.789062 C 209.195312 389.480469 208.894531 391.230469 207.960938 392.71875 Z M 208.578125 323.410156 L 212.714844 322.476562 C 214.410156 322.085938 216.175781 322.386719 217.675781 323.332031 C 219.179688 324.277344 220.222656 325.742188 220.613281 327.476562 C 221.003906 329.175781 220.699219 330.9375 219.757812 332.433594 C 218.808594 333.9375 217.347656 334.980469 215.628906 335.371094 L 211.546875 336.296875 Z M 226.964844 356.050781 L 216.09375 356.050781 L 214.738281 350.160156 L 218.769531 349.242188 C 224.195312 348.015625 228.824219 344.738281 231.796875 340.007812 C 234.765625 335.289062 235.71875 329.707031 234.484375 324.316406 C 233.257812 318.890625 229.976562 314.265625 225.25 311.289062 C 220.523438 308.320312 214.945312 307.367188 209.558594 308.605469 L 205.382812 309.546875 L 197.398438 274.875 C 195.109375 264.9375 185.984375 258.265625 176.113281 258.6875 L 176.113281 174.84375 L 422.878906 174.84375 L 422.878906 346.214844 C 422.878906 351.636719 418.480469 356.050781 413.070312 356.050781 Z M 466.234375 352.09375 C 464.667969 354.058594 460.988281 356.050781 456.980469 356.050781 L 434.996094 356.050781 C 436.347656 353.046875 437.105469 349.71875 437.105469 346.214844 L 437.105469 220.40625 L 466.976562 349.914062 C 467.039062 350.175781 467.199219 350.875 466.234375 352.09375 Z M 372.988281 241.835938 C 372.980469 241.835938 372.976562 241.835938 372.972656 241.835938 L 321.9375 241.929688 L 306.277344 193.390625 C 305.332031 190.457031 302.597656 188.464844 299.511719 188.464844 C 299.511719 188.464844 299.511719 188.464844 299.507812 188.464844 C 296.421875 188.464844 293.6875 190.453125 292.742188 193.390625 L 277.058594 241.929688 L 226.042969 241.835938 C 226.039062 241.835938 226.035156 241.835938 226.03125 241.835938 C 222.949219 241.835938 220.21875 243.820312 219.265625 246.753906 C 218.3125 249.6875 219.359375 252.902344 221.863281 254.714844 L 263.1875 284.613281 L 247.320312 333.105469 C 246.359375 336.039062 247.402344 339.257812 249.898438 341.070312 C 251.144531 341.976562 252.613281 342.429688 254.082031 342.429688 C 255.550781 342.429688 257.023438 341.976562 258.269531 341.066406 L 299.507812 311.003906 L 340.71875 341.066406 C 343.214844 342.882812 346.597656 342.886719 349.09375 341.074219 C 351.589844 339.257812 352.632812 336.039062 351.671875 333.105469 L 335.804688 284.617188 L 377.15625 254.714844 C 379.65625 252.90625 380.703125 249.691406 379.75 246.753906 C 378.800781 243.820312 376.066406 241.835938 372.988281 241.835938 Z M 323.261719 276.128906 C 320.757812 277.941406 319.710938 281.164062 320.671875 284.105469 L 331.296875 316.582031 L 303.699219 296.453125 C 301.203125 294.628906 297.816406 294.632812 295.320312 296.453125 L 267.691406 316.59375 L 278.320312 284.105469 C 279.28125 281.167969 278.234375 277.941406 275.730469 276.128906 L 248.050781 256.105469 L 282.21875 256.164062 C 282.222656 256.164062 282.226562 256.164062 282.230469 256.164062 C 285.316406 256.164062 288.050781 254.175781 289 251.238281 L 299.503906 218.726562 L 309.992188 251.234375 C 310.941406 254.175781 313.675781 256.164062 316.761719 256.164062 C 316.765625 256.164062 316.769531 256.164062 316.777344 256.164062 L 350.957031 256.105469 Z M 323.261719 276.128906 " fill-opacity="1" fill-rule="nonzero"/><path fill="#0a2a4a" d="M 480.839844 346.710938 L 437.105469 157.109375 L 437.105469 129.238281 C 437.105469 119.488281 431.28125 111.082031 422.9375 107.304688 C 420.496094 89.390625 405.105469 75.535156 386.53125 75.535156 C 368.6875 75.535156 353.777344 88.304688 350.453125 105.175781 L 335.566406 105.175781 C 332.242188 88.304688 317.339844 75.535156 299.507812 75.535156 C 281.664062 75.535156 266.753906 88.304688 263.429688 105.175781 L 248.542969 105.175781 C 245.21875 88.304688 230.316406 75.535156 212.488281 75.535156 C 193.898438 75.535156 178.492188 89.394531 176.054688 107.3125 C 167.710938 111.09375 161.886719 119.496094 161.886719 129.238281 L 161.886719 265.203125 C 160.996094 266.15625 160.183594 267.199219 159.472656 268.328125 C 156.589844 272.894531 155.617188 278.277344 156.691406 283.535156 C 136.53125 298.996094 119.542969 309.292969 102.152344 316.609375 L 60.472656 326.003906 C 56.261719 326.949219 52.8125 329.378906 50.507812 333.042969 C 49.953125 333.925781 49.492188 334.839844 49.125 335.773438 L 41.324219 337.539062 C 30.535156 340.003906 23.730469 350.78125 26.15625 361.589844 L 30.617188 381.195312 C 32.710938 390.511719 41.019531 396.855469 50.214844 396.855469 C 51.675781 396.855469 53.15625 396.695312 54.640625 396.363281 L 62.367188 394.613281 C 63.136719 395.34375 63.988281 396 64.917969 396.582031 C 67.507812 398.210938 70.351562 399.039062 73.292969 399.039062 C 74.464844 399.039062 75.652344 398.90625 76.84375 398.640625 L 100.984375 440.59375 C 103.914062 445.695312 109.28125 448.558594 114.808594 448.558594 C 117.496094 448.558594 120.21875 447.882812 122.71875 446.460938 L 132.132812 441.011719 C 136.390625 438.589844 139.160156 434.589844 139.917969 429.792969 C 140.722656 424.980469 139.367188 420.304688 136.074219 416.605469 C 129.378906 409.15625 123.492188 399.945312 118.507812 389.152344 L 118.589844 389.132812 C 142.28125 388.015625 164.796875 391.78125 182.550781 395.582031 C 185.378906 404.226562 193.535156 409.984375 202.457031 409.984375 C 203.957031 409.984375 205.476562 409.824219 206.996094 409.484375 C 212.410156 408.277344 217.027344 405.015625 219.992188 400.304688 C 222.964844 395.589844 223.917969 390.011719 222.671875 384.601562 L 219.371094 370.28125 L 456.980469 370.28125 C 464.859375 370.28125 472.863281 366.617188 477.371094 360.945312 C 480.75 356.691406 481.980469 351.636719 480.839844 346.710938 Z M 177.632812 124.007812 C 182.539062 138.554688 196.304688 149.0625 212.484375 149.0625 C 216.414062 149.0625 219.601562 145.878906 219.601562 141.949219 C 219.601562 138.023438 216.414062 134.839844 212.484375 134.839844 C 202.535156 134.839844 194.078125 128.359375 191.089844 119.402344 L 263.429688 119.402344 C 266.75 136.285156 281.664062 149.0625 299.507812 149.0625 C 303.4375 149.0625 306.621094 145.878906 306.621094 141.949219 C 306.621094 138.023438 303.4375 134.839844 299.507812 134.839844 C 289.558594 134.839844 281.101562 128.359375 278.113281 119.402344 L 350.449219 119.402344 C 353.773438 136.285156 368.6875 149.0625 386.53125 149.0625 C 390.460938 149.0625 393.644531 145.878906 393.644531 141.949219 C 393.644531 138.023438 390.460938 134.839844 386.53125 134.839844 C 376.582031 134.839844 368.121094 128.359375 365.136719 119.402344 L 413.066406 119.402344 C 418.476562 119.402344 422.878906 123.8125 422.878906 129.238281 L 422.878906 160.617188 L 176.113281 160.617188 L 176.113281 129.238281 C 176.113281 127.316406 176.675781 125.523438 177.632812 124.007812 Z M 386.53125 89.761719 C 396.464844 89.761719 404.914062 96.230469 407.898438 105.175781 L 365.140625 105.175781 C 368.128906 96.230469 376.585938 89.761719 386.53125 89.761719 Z M 299.507812 89.761719 C 309.441406 89.761719 317.890625 96.230469 320.875 105.175781 L 278.117188 105.175781 C 281.105469 96.230469 289.5625 89.761719 299.507812 89.761719 Z M 212.484375 89.761719 C 222.421875 89.761719 230.867188 96.230469 233.851562 105.175781 L 191.09375 105.175781 C 194.082031 96.230469 202.539062 89.761719 212.484375 89.761719 Z M 51.511719 382.484375 C 48.347656 383.195312 45.203125 381.21875 44.492188 378.058594 L 40.03125 358.453125 C 39.324219 355.292969 41.320312 352.132812 44.476562 351.410156 L 49.632812 350.246094 L 56.679688 381.3125 Z M 71.761719 383.488281 L 62.332031 341.914062 C 62.304688 341.785156 62.285156 341.671875 62.277344 341.5625 C 62.277344 341.554688 62.277344 341.542969 62.277344 341.535156 C 62.253906 341.207031 62.335938 340.953125 62.542969 340.621094 C 62.828125 340.171875 63.066406 340.003906 63.589844 339.886719 L 98.988281 331.90625 L 109.132812 376.695312 L 107.382812 377.09375 C 107.300781 377.109375 107.222656 377.132812 107.140625 377.148438 L 78.953125 383.570312 C 78.867188 383.589844 78.785156 383.609375 78.699219 383.628906 L 73.75 384.757812 C 73.234375 384.875 72.945312 384.820312 72.464844 384.519531 C 72.078125 384.277344 71.894531 384.082031 71.761719 383.488281 Z M 125.46875 426.082031 C 125.929688 426.601562 125.972656 426.949219 125.878906 427.507812 C 125.785156 428.09375 125.605469 428.359375 125.054688 428.671875 L 115.640625 434.117188 C 114.820312 434.582031 113.78125 434.304688 113.316406 433.5 L 91.355469 395.335938 L 104.359375 392.375 C 110.183594 405.640625 117.273438 416.964844 125.46875 426.082031 Z M 123.28125 374.753906 L 112.589844 327.5625 C 131.109375 319.152344 147.136719 308.464844 160.179688 298.746094 L 178.949219 380.3125 C 162.867188 377.125 143.671875 374.351562 123.28125 374.753906 Z M 207.960938 392.71875 C 207.027344 394.199219 205.582031 395.222656 203.902344 395.597656 C 200.375 396.382812 196.714844 394.082031 195.90625 390.578125 L 195.410156 388.417969 C 195.363281 388.121094 195.296875 387.828125 195.207031 387.539062 L 170.660156 280.851562 C 170.269531 279.152344 170.566406 277.398438 171.503906 275.917969 C 172.433594 274.441406 173.875 273.421875 175.566406 273.046875 C 179.136719 272.25 182.714844 274.503906 183.53125 278.066406 L 208.804688 387.789062 C 209.195312 389.480469 208.894531 391.230469 207.960938 392.71875 Z M 208.578125 323.410156 L 212.714844 322.476562 C 214.410156 322.085938 216.175781 322.386719 217.675781 323.332031 C 219.179688 324.277344 220.222656 325.742188 220.613281 327.476562 C 221.003906 329.175781 220.699219 330.9375 219.757812 332.433594 C 218.808594 333.9375 217.347656 334.980469 215.628906 335.371094 L 211.546875 336.296875 Z M 226.964844 356.050781 L 216.09375 356.050781 L 214.738281 350.160156 L 218.769531 349.242188 C 224.195312 348.015625 228.824219 344.738281 231.796875 340.007812 C 234.765625 335.289062 235.71875 329.707031 234.484375 324.316406 C 233.257812 318.890625 229.976562 314.265625 225.25 311.289062 C 220.523438 308.320312 214.945312 307.367188 209.558594 308.605469 L 205.382812 309.546875 L 197.398438 274.875 C 195.109375 264.9375 185.984375 258.265625 176.113281 258.6875 L 176.113281 174.84375 L 422.878906 174.84375 L 422.878906 346.214844 C 422.878906 351.636719 418.480469 356.050781 413.070312 356.050781 Z M 466.234375 352.09375 C 464.667969 354.058594 460.988281 356.050781 456.980469 356.050781 L 434.996094 356.050781 C 436.347656 353.046875 437.105469 349.71875 437.105469 346.214844 L 437.105469 220.40625 L 466.976562 349.914062 C 467.039062 350.175781 467.199219 350.875 466.234375 352.09375 Z M 372.988281 241.835938 C 372.980469 241.835938 372.976562 241.835938 372.972656 241.835938 L 321.9375 241.929688 L 306.277344 193.390625 C 305.332031 190.457031 302.597656 188.464844 299.511719 188.464844 C 299.511719 188.464844 299.511719 188.464844 299.507812 188.464844 C 296.421875 188.464844 293.6875 190.453125 292.742188 193.390625 L 277.058594 241.929688 L 226.042969 241.835938 C 226.039062 241.835938 226.035156 241.835938 226.03125 241.835938 C 222.949219 241.835938 220.21875 243.820312 219.265625 246.753906 C 218.3125 249.6875 219.359375 252.902344 221.863281 254.714844 L 263.1875 284.613281 L 247.320312 333.105469 C 246.359375 336.039062 247.402344 339.257812 249.898438 341.070312 C 251.144531 341.976562 252.613281 342.429688 254.082031 342.429688 C 255.550781 342.429688 257.023438 341.976562 258.269531 341.066406 L 299.507812 311.003906 L 340.71875 341.066406 C 343.214844 342.882812 346.597656 342.886719 349.09375 341.074219 C 351.589844 339.257812 352.632812 336.039062 351.671875 333.105469 L 335.804688 284.617188 L 377.15625 254.714844 C 379.65625 252.90625 380.703125 249.691406 379.75 246.753906 C 378.800781 243.820312 376.066406 241.835938 372.988281 241.835938 Z M 323.261719 276.128906 C 320.757812 277.941406 319.710938 281.164062 320.671875 284.105469 L 331.296875 316.582031 L 303.699219 296.453125 C 301.203125 294.628906 297.816406 294.632812 295.320312 296.453125 L 267.691406 316.59375 L 278.320312 284.105469 C 279.28125 281.167969 278.234375 277.941406 275.730469 276.128906 L 248.050781 256.105469 L 282.21875 256.164062 C 282.222656 256.164062 282.226562 256.164062 282.230469 256.164062 C 285.316406 256.164062 288.050781 254.175781 289 251.238281 L 299.503906 218.726562 L 309.992188 251.234375 C 310.941406 254.175781 313.675781 256.164062 316.761719 256.164062 C 316.765625 256.164062 316.769531 256.164062 316.777344 256.164062 L 350.957031 256.105469 Z M 323.261719 276.128906 " fill-opacity="1" fill-rule="nonzero"/></g></svg>