<svg xmlns="http://www.w3.org/2000/svg" xmlns:xlink="http://www.w3.org/1999/xlink" width="700" zoomAndPan="magnify" viewBox="0 0 525 525.000007" height="700" preserveAspectRatio="xMidYMid meet" version="1.0"><defs><clipPath id="78acb38241"><path d="M 9.050781 58 L 515.832031 58 L 515.832031 465.945312 L 9.050781 465.945312 Z M 9.050781 58 " clip-rule="nonzero"/></clipPath></defs><g clip-path="url(#78acb38241)"><path fill="#0a2a4a" d="M 45.535156 263.007812 L 45.53125 263.003906 Z M 199.269531 273.148438 L 199.273438 273.144531 Z M 58.363281 196.757812 C 60.539062 194.023438 64.519531 193.570312 67.253906 195.742188 C 69.988281 197.917969 70.441406 201.894531 68.265625 204.628906 L 56.867188 218.960938 L 72.554688 233.167969 C 76.671875 236.898438 78.890625 241.960938 79.140625 247.109375 C 79.394531 252.238281 77.6875 257.484375 73.964844 261.597656 L 73.960938 261.605469 L 73.75 261.828125 L 73.769531 261.84375 L 73.765625 261.847656 L 73.464844 262.125 C 72.300781 263.324219 71.019531 264.347656 69.652344 265.191406 L 69.652344 357.972656 C 69.652344 361.449219 71.082031 364.617188 73.375 366.910156 C 75.671875 369.207031 78.835938 370.632812 82.3125 370.632812 C 85.789062 370.632812 88.953125 369.207031 91.246094 366.910156 C 93.542969 364.617188 94.96875 361.449219 94.96875 357.972656 L 94.96875 271.621094 C 94.96875 268.121094 97.808594 265.28125 101.308594 265.28125 C 104.808594 265.28125 107.644531 268.121094 107.644531 271.621094 L 107.644531 357.972656 C 107.644531 361.328125 108.960938 364.390625 111.101562 366.65625 L 111.367188 366.910156 C 113.664062 369.207031 116.832031 370.632812 120.304688 370.632812 C 123.78125 370.632812 126.949219 369.21875 129.242188 366.9375 L 129.265625 366.910156 C 131.546875 364.617188 132.964844 361.449219 132.964844 357.972656 L 132.988281 357.972656 L 132.992188 281.949219 L 132.964844 281.949219 L 132.964844 207.636719 L 132.988281 207.636719 C 132.988281 205.707031 133.871094 203.800781 135.542969 202.5625 C 138.34375 200.484375 142.300781 201.074219 144.378906 203.875 L 162.933594 228.960938 C 164.121094 230.566406 165.867188 231.542969 167.71875 231.820312 C 169.597656 232.101562 171.566406 231.679688 173.164062 230.5 L 182.511719 223.582031 C 182.703125 223.425781 182.898438 223.285156 183.109375 223.148438 L 189.15625 219.246094 C 189.375 219.082031 189.605469 218.9375 189.84375 218.804688 L 208.601562 206.699219 C 210.3125 205.59375 211.425781 203.875 211.828125 202.011719 C 212.230469 200.128906 211.933594 198.101562 210.84375 196.382812 L 210.8125 196.335938 C 209.738281 194.671875 208.09375 193.582031 206.292969 193.148438 L 206.097656 193.109375 C 204.214844 192.703125 202.179688 193.007812 200.449219 194.121094 L 200.445312 194.117188 L 196.675781 196.558594 C 196.480469 196.699219 196.277344 196.832031 196.070312 196.953125 L 175.105469 210.542969 C 172.324219 212.398438 168.542969 211.761719 166.53125 209.046875 L 135.558594 167.359375 L 135.289062 167.015625 C 132.929688 163.75 130.207031 161.34375 127.132812 159.808594 C 124.027344 158.253906 120.425781 157.5 116.339844 157.542969 L 116.316406 157.542969 L 81.40625 157.679688 C 81.1875 157.695312 80.964844 157.695312 80.738281 157.683594 C 77.222656 157.5 74.234375 157.925781 71.785156 158.964844 C 69.628906 159.875 67.792969 161.316406 66.289062 163.277344 C 66.175781 163.460938 66.042969 163.640625 65.90625 163.816406 L 23.546875 217.050781 C 23.421875 217.230469 23.285156 217.40625 23.136719 217.578125 C 22.015625 219.101562 21.582031 220.957031 21.785156 222.75 C 21.984375 224.507812 22.824219 226.203125 24.25 227.433594 C 24.429688 227.5625 24.601562 227.703125 24.769531 227.851562 L 30.929688 232.757812 L 30.921875 232.769531 L 31.226562 233.027344 L 53.558594 253.253906 C 53.800781 253.433594 54.027344 253.632812 54.246094 253.851562 L 54.25 253.851562 L 54.242188 253.863281 C 55.722656 255.089844 57.585938 255.652344 59.429688 255.5625 L 59.84375 255.527344 C 60.742188 254.9375 61.800781 254.570312 62.9375 254.503906 C 63.425781 254.210938 63.890625 253.859375 64.308594 253.445312 C 64.460938 253.253906 64.625 253.066406 64.804688 252.886719 L 64.808594 252.882812 L 64.816406 252.894531 C 66.046875 251.410156 66.605469 249.546875 66.515625 247.703125 C 66.425781 245.78125 65.605469 243.894531 64.089844 242.523438 L 44.332031 224.628906 L 44.296875 224.601562 C 41.5625 222.429688 41.109375 218.449219 43.28125 215.714844 Z M 454.273438 332.886719 C 449.132812 332.886719 444.480469 334.96875 441.113281 338.335938 C 437.75 341.699219 435.667969 346.355469 435.667969 351.492188 C 435.667969 356.632812 437.75 361.285156 441.113281 364.652344 C 444.480469 368.015625 449.132812 370.101562 454.273438 370.101562 C 459.410156 370.101562 464.066406 368.015625 467.429688 364.652344 C 470.796875 361.285156 472.878906 356.632812 472.878906 351.492188 C 472.878906 346.355469 470.796875 341.699219 467.429688 338.335938 C 464.066406 334.96875 459.410156 332.886719 454.273438 332.886719 Z M 432.15625 329.375 C 437.816406 323.714844 445.636719 320.210938 454.273438 320.210938 C 462.910156 320.210938 470.730469 323.714844 476.390625 329.375 C 482.050781 335.035156 485.554688 342.859375 485.554688 351.492188 C 485.554688 360.128906 482.050781 367.953125 476.390625 373.613281 C 470.730469 379.273438 462.910156 382.773438 454.273438 382.773438 C 445.636719 382.773438 437.816406 379.273438 432.15625 373.613281 C 426.492188 367.953125 422.992188 360.128906 422.992188 351.492188 C 422.992188 342.859375 426.492188 335.035156 432.15625 329.375 Z M 509.171875 455.792969 C 490.867188 462.472656 472.5625 465.8125 454.269531 465.8125 C 435.980469 465.8125 417.679688 462.472656 399.375 455.792969 C 397.238281 455.015625 395.484375 453.605469 394.277344 451.8125 C 394.179688 451.667969 394.09375 451.527344 394.011719 451.382812 C 392.984375 449.6875 392.449219 447.703125 392.523438 445.628906 L 392.53125 445.445312 C 393.164062 428.925781 400.265625 414.066406 411.375 403.347656 C 422.496094 392.617188 437.621094 386.011719 454.269531 386.011719 C 470.921875 386.011719 486.050781 392.613281 497.171875 403.347656 C 508.320312 414.105469 515.433594 429.035156 516.023438 445.628906 C 516.105469 447.878906 515.464844 450.019531 514.261719 451.804688 L 514.269531 451.8125 C 513.0625 453.605469 511.304688 455.015625 509.171875 455.792969 Z M 454.269531 453.136719 C 470.625 453.136719 486.976562 450.246094 503.316406 444.464844 C 502.480469 431.929688 496.921875 420.671875 488.40625 412.453125 C 479.574219 403.929688 467.539062 398.683594 454.269531 398.683594 C 441.003906 398.683594 428.96875 403.929688 420.136719 412.453125 C 411.625 420.671875 406.066406 431.929688 405.226562 444.464844 C 421.566406 450.246094 437.917969 453.136719 454.269531 453.136719 Z M 152.914062 444.464844 C 169.253906 450.246094 185.605469 453.136719 201.960938 453.136719 C 218.316406 453.136719 234.667969 450.246094 251.003906 444.464844 C 250.167969 431.929688 244.609375 420.671875 236.097656 412.453125 C 227.265625 403.929688 215.230469 398.683594 201.960938 398.683594 C 188.691406 398.683594 176.65625 403.929688 167.824219 412.453125 C 159.3125 420.671875 153.753906 431.929688 152.914062 444.464844 Z M 201.960938 465.8125 C 183.671875 465.8125 165.367188 462.472656 147.0625 455.792969 C 144.910156 455.007812 143.160156 453.613281 141.960938 451.835938 L 141.972656 451.828125 L 141.960938 451.8125 C 140.769531 450.042969 140.132812 447.90625 140.207031 445.652344 C 140.789062 429.050781 147.910156 414.109375 159.0625 403.347656 C 170.183594 392.613281 185.308594 386.011719 201.960938 386.011719 C 218.613281 386.011719 233.738281 392.617188 244.859375 403.347656 C 255.964844 414.066406 263.070312 428.925781 263.703125 445.445312 L 263.710938 445.628906 C 263.792969 447.914062 263.152344 450.066406 261.957031 451.835938 C 260.761719 453.609375 259.007812 455.011719 256.855469 455.792969 C 238.554688 462.472656 220.253906 465.8125 201.960938 465.8125 Z M 201.960938 320.210938 C 210.597656 320.210938 218.417969 323.714844 224.078125 329.375 C 229.738281 335.035156 233.242188 342.859375 233.242188 351.492188 C 233.242188 360.128906 229.738281 367.953125 224.078125 373.613281 C 218.417969 379.273438 210.597656 382.773438 201.960938 382.773438 C 193.324219 382.773438 185.503906 379.273438 179.84375 373.613281 C 174.183594 367.953125 170.679688 360.128906 170.679688 351.492188 C 170.679688 342.859375 174.183594 335.035156 179.84375 329.375 C 185.503906 323.714844 193.324219 320.210938 201.960938 320.210938 Z M 215.121094 338.335938 C 218.484375 341.699219 220.566406 346.355469 220.566406 351.492188 C 220.566406 356.632812 218.484375 361.285156 215.121094 364.652344 C 211.753906 368.015625 207.097656 370.101562 201.960938 370.101562 C 196.820312 370.101562 192.167969 368.015625 188.800781 364.652344 C 185.4375 361.285156 183.355469 356.632812 183.355469 351.492188 C 183.355469 346.355469 185.4375 341.699219 188.800781 338.335938 C 192.167969 334.96875 196.820312 332.886719 201.960938 332.886719 C 207.097656 332.886719 211.753906 334.96875 215.121094 338.335938 Z M 328.117188 332.886719 C 322.976562 332.886719 318.324219 334.96875 314.957031 338.335938 C 311.59375 341.699219 309.511719 346.355469 309.511719 351.492188 C 309.511719 356.632812 311.59375 361.285156 314.957031 364.652344 C 318.324219 368.015625 322.976562 370.101562 328.117188 370.101562 C 333.253906 370.101562 337.910156 368.015625 341.277344 364.652344 C 344.640625 361.285156 346.722656 356.632812 346.722656 351.492188 C 346.722656 346.355469 344.640625 341.699219 341.277344 338.335938 C 337.910156 334.96875 333.253906 332.886719 328.117188 332.886719 Z M 306 329.375 C 311.660156 323.714844 319.480469 320.210938 328.117188 320.210938 C 336.753906 320.210938 344.574219 323.714844 350.234375 329.375 C 355.894531 335.035156 359.398438 342.859375 359.398438 351.492188 C 359.398438 360.128906 355.894531 367.953125 350.234375 373.613281 C 344.574219 379.273438 336.753906 382.773438 328.117188 382.773438 C 319.480469 382.773438 311.660156 379.273438 306 373.613281 C 300.335938 367.953125 296.835938 360.128906 296.835938 351.492188 C 296.835938 342.859375 300.335938 335.035156 306 329.375 Z M 383.015625 455.792969 C 364.710938 462.472656 346.40625 465.8125 328.117188 465.8125 C 309.824219 465.8125 291.523438 462.472656 273.21875 455.792969 C 271.082031 455.015625 269.328125 453.605469 268.121094 451.8125 C 268.023438 451.667969 267.9375 451.527344 267.855469 451.382812 C 266.828125 449.6875 266.292969 447.703125 266.367188 445.628906 L 266.375 445.445312 C 267.007812 428.925781 274.109375 414.066406 285.21875 403.347656 C 296.339844 392.617188 311.464844 386.011719 328.113281 386.011719 C 344.765625 386.011719 359.894531 392.613281 371.015625 403.347656 C 382.164062 414.105469 389.277344 429.035156 389.867188 445.628906 C 389.949219 447.894531 389.3125 450.035156 388.117188 451.8125 C 388.011719 451.96875 387.902344 452.117188 387.785156 452.261719 C 386.597656 453.839844 384.96875 455.082031 383.015625 455.792969 Z M 328.117188 453.136719 C 344.46875 453.136719 360.820312 450.246094 377.160156 444.464844 C 376.324219 431.929688 370.765625 420.671875 362.25 412.453125 C 353.417969 403.929688 341.382812 398.683594 328.113281 398.683594 C 314.847656 398.683594 302.8125 403.929688 293.980469 412.453125 C 285.46875 420.671875 279.910156 431.929688 279.070312 444.464844 C 295.410156 450.246094 311.761719 453.136719 328.117188 453.136719 Z M 248.78125 123.324219 C 245.28125 123.324219 242.441406 120.488281 242.441406 116.988281 C 242.441406 113.488281 245.28125 110.648438 248.78125 110.648438 L 431.765625 110.648438 C 435.265625 110.648438 438.105469 113.488281 438.105469 116.988281 C 438.105469 120.488281 435.265625 123.324219 431.765625 123.324219 Z M 333.144531 178.285156 C 329.644531 178.285156 326.804688 175.449219 326.804688 171.949219 C 326.804688 168.449219 329.644531 165.609375 333.144531 165.609375 L 431.765625 165.609375 C 435.265625 165.609375 438.105469 168.449219 438.105469 171.949219 C 438.105469 175.449219 435.265625 178.285156 431.765625 178.285156 Z M 248.78125 233.246094 C 245.28125 233.246094 242.441406 230.40625 242.441406 226.910156 C 242.441406 223.410156 245.28125 220.570312 248.78125 220.570312 L 350.96875 220.570312 C 354.46875 220.570312 357.304688 223.410156 357.304688 226.910156 C 357.304688 230.40625 354.46875 233.246094 350.96875 233.246094 Z M 248.78125 178.285156 C 245.28125 178.285156 242.441406 175.449219 242.441406 171.949219 C 242.441406 168.449219 245.28125 165.609375 248.78125 165.609375 L 312.644531 165.609375 C 316.144531 165.609375 318.980469 168.449219 318.980469 171.949219 C 318.980469 175.449219 316.144531 178.285156 312.644531 178.285156 Z M 369.683594 233.246094 C 366.183594 233.246094 363.34375 230.40625 363.34375 226.910156 C 363.34375 223.410156 366.183594 220.570312 369.683594 220.570312 L 431.765625 220.570312 C 435.265625 220.570312 438.105469 223.410156 438.105469 226.910156 C 438.105469 230.40625 435.265625 233.246094 431.765625 233.246094 Z M 199.269531 227.773438 L 199.269531 273.148438 L 481.277344 273.148438 L 481.273438 273.148438 L 481.273438 273.144531 L 481.277344 273.148438 L 481.277344 70.75 L 199.269531 70.75 L 199.273438 70.753906 L 199.269531 70.753906 L 199.269531 106.796875 C 199.269531 110.292969 197.847656 113.460938 195.554688 115.753906 C 193.257812 118.046875 190.085938 119.46875 186.597656 119.46875 L 159.382812 119.46875 L 159.371094 119.464844 L 159.355469 119.492188 C 159.359375 119.515625 159.359375 119.472656 159.378906 119.492188 L 195.609375 156.164062 C 196.792969 157.363281 197.695312 158.71875 198.316406 160.230469 C 198.949219 161.773438 199.269531 163.386719 199.269531 165.042969 L 199.269531 180.964844 C 202.40625 180.121094 205.667969 180.0625 208.769531 180.730469 L 209.066406 180.800781 C 213.84375 181.914062 218.230469 184.753906 221.183594 189.085938 C 221.378906 189.34375 221.550781 189.613281 221.703125 189.886719 C 224.503906 194.453125 225.257812 199.746094 224.203125 204.632812 C 223.117188 209.6875 220.097656 214.335938 215.433594 217.34375 Z M 186.59375 188.039062 L 186.59375 165.042969 C 186.59375 165.027344 186.597656 165.023438 186.601562 165.023438 L 186.597656 165.023438 L 150.367188 128.351562 C 148.554688 126.519531 147.390625 124.273438 146.925781 121.867188 C 146.464844 119.480469 146.703125 116.976562 147.695312 114.601562 C 148.6875 112.21875 150.320312 110.265625 152.367188 108.902344 C 154.402344 107.546875 156.816406 106.796875 159.382812 106.796875 L 186.59375 106.796875 L 186.59375 106.792969 L 186.59375 106.796875 L 186.59375 70.75 C 186.59375 67.257812 188.015625 64.085938 190.3125 61.792969 C 192.605469 59.5 195.773438 58.074219 199.269531 58.074219 L 481.277344 58.074219 C 484.769531 58.074219 487.941406 59.5 490.234375 61.792969 C 492.527344 64.085938 493.953125 67.257812 493.953125 70.75 L 493.953125 273.148438 C 493.953125 276.644531 492.527344 279.8125 490.234375 282.105469 C 487.941406 284.398438 484.769531 285.824219 481.277344 285.824219 L 199.269531 285.824219 C 195.773438 285.824219 192.605469 284.398438 190.3125 282.105469 C 188.015625 279.8125 186.59375 276.644531 186.59375 273.148438 L 186.59375 236.277344 L 180.6875 240.652344 C 176.257812 243.925781 170.914062 245.097656 165.886719 244.34375 C 160.832031 243.585938 156.054688 240.90625 152.785156 236.484375 L 145.640625 226.828125 L 145.640625 281.949219 L 145.617188 281.949219 L 145.613281 357.972656 L 145.640625 357.972656 C 145.640625 364.929688 142.789062 371.257812 138.203125 375.847656 L 138.175781 375.871094 C 133.589844 380.457031 127.261719 383.308594 120.304688 383.308594 C 113.332031 383.308594 106.996094 380.460938 102.40625 375.871094 C 102.277344 375.742188 102.152344 375.601562 102.035156 375.464844 C 101.789062 375.210938 101.554688 374.953125 101.320312 374.6875 C 100.960938 375.09375 100.589844 375.488281 100.207031 375.871094 C 95.621094 380.457031 89.285156 383.308594 82.3125 383.308594 C 75.339844 383.308594 69.003906 380.460938 64.414062 375.871094 C 59.828125 371.285156 56.976562 364.949219 56.976562 357.972656 L 56.976562 268.105469 C 52.867188 267.6875 48.835938 265.996094 45.539062 263.011719 L 45.53125 263.003906 L 45.304688 262.796875 L 45.289062 262.8125 L 45.097656 262.613281 L 23.0625 242.65625 L 23.058594 242.65625 L 16.601562 237.519531 L 16.507812 237.441406 C 12.265625 234.023438 9.785156 229.183594 9.210938 224.136719 C 8.636719 219.074219 9.988281 213.777344 13.40625 209.480469 L 13.421875 209.460938 L 56.003906 155.945312 L 56.164062 155.753906 C 59.039062 151.949219 62.613281 149.136719 66.886719 147.332031 C 71.125 145.535156 75.953125 144.777344 81.355469 145.054688 L 116.242188 144.917969 C 122.332031 144.851562 127.847656 146.050781 132.777344 148.519531 C 137.742188 151.003906 141.996094 154.695312 145.535156 159.589844 L 145.707031 159.835938 L 173.140625 196.757812 Z M 481.277344 70.753906 L 481.273438 70.753906 L 481.273438 70.75 L 481.277344 70.75 Z M 199.269531 70.75 L 199.269531 70.753906 Z M 186.632812 165.035156 L 186.636719 165.042969 L 186.628906 165.042969 L 186.609375 165.027344 C 186.625 165.03125 186.625 165.015625 186.632812 165.035156 Z M 99.558594 69.773438 C 89.390625 69.773438 80.179688 73.894531 73.515625 80.5625 C 66.851562 87.226562 62.726562 96.433594 62.726562 106.601562 C 62.726562 116.769531 66.851562 125.980469 73.515625 132.644531 C 80.179688 139.308594 89.390625 143.433594 99.558594 143.433594 C 109.726562 143.433594 118.9375 139.308594 125.601562 132.644531 C 132.265625 125.980469 136.390625 116.769531 136.390625 106.601562 C 136.390625 96.652344 132.417969 87.601562 125.96875 80.957031 C 125.851562 80.820312 125.730469 80.6875 125.601562 80.5625 C 118.9375 73.894531 109.726562 69.773438 99.558594 69.773438 Z M 116.640625 89.519531 C 112.273438 85.152344 106.230469 82.449219 99.558594 82.449219 C 92.890625 82.449219 86.84375 85.152344 82.476562 89.519531 C 78.109375 93.890625 75.402344 99.933594 75.402344 106.601562 C 75.402344 113.273438 78.109375 119.316406 82.476562 123.683594 C 86.84375 128.054688 92.890625 130.757812 99.558594 130.757812 C 106.230469 130.757812 112.273438 128.054688 116.640625 123.683594 C 121.011719 119.316406 123.714844 113.273438 123.714844 106.601562 C 123.714844 100.058594 121.136719 94.136719 116.949219 89.808594 Z M 116.640625 89.519531 " fill-opacity="1" fill-rule="evenodd"/><path fill="#0a2a4a" d="M 45.535156 263.007812 L 45.53125 263.003906 Z M 199.269531 273.148438 L 199.273438 273.144531 Z M 58.363281 196.757812 C 60.539062 194.023438 64.519531 193.570312 67.253906 195.742188 C 69.988281 197.917969 70.441406 201.894531 68.265625 204.628906 L 56.867188 218.960938 L 72.554688 233.167969 C 76.671875 236.898438 78.890625 241.960938 79.140625 247.109375 C 79.394531 252.238281 77.6875 257.484375 73.964844 261.597656 L 73.960938 261.605469 L 73.75 261.828125 L 73.769531 261.84375 L 73.765625 261.847656 L 73.464844 262.125 C 72.300781 263.324219 71.019531 264.347656 69.652344 265.191406 L 69.652344 357.972656 C 69.652344 361.449219 71.082031 364.617188 73.375 366.910156 C 75.671875 369.207031 78.835938 370.632812 82.3125 370.632812 C 85.789062 370.632812 88.953125 369.207031 91.246094 366.910156 C 93.542969 364.617188 94.96875 361.449219 94.96875 357.972656 L 94.96875 271.621094 C 94.96875 268.121094 97.808594 265.28125 101.308594 265.28125 C 104.808594 265.28125 107.644531 268.121094 107.644531 271.621094 L 107.644531 357.972656 C 107.644531 361.328125 108.960938 364.390625 111.101562 366.65625 L 111.367188 366.910156 C 113.664062 369.207031 116.832031 370.632812 120.304688 370.632812 C 123.78125 370.632812 126.949219 369.21875 129.242188 366.9375 L 129.265625 366.910156 C 131.546875 364.617188 132.964844 361.449219 132.964844 357.972656 L 132.988281 357.972656 L 132.992188 281.949219 L 132.964844 281.949219 L 132.964844 207.636719 L 132.988281 207.636719 C 132.988281 205.707031 133.871094 203.800781 135.542969 202.5625 C 138.34375 200.484375 142.300781 201.074219 144.378906 203.875 L 162.933594 228.960938 C 164.121094 230.566406 165.867188 231.542969 167.71875 231.820312 C 169.597656 232.101562 171.566406 231.679688 173.164062 230.5 L 182.511719 223.582031 C 182.703125 223.425781 182.898438 223.285156 183.109375 223.148438 L 189.15625 219.246094 C 189.375 219.082031 189.605469 218.9375 189.84375 218.804688 L 208.601562 206.699219 C 210.3125 205.59375 211.425781 203.875 211.828125 202.011719 C 212.230469 200.128906 211.933594 198.101562 210.84375 196.382812 L 210.8125 196.335938 C 209.738281 194.671875 208.09375 193.582031 206.292969 193.148438 L 206.097656 193.109375 C 204.214844 192.703125 202.179688 193.007812 200.449219 194.121094 L 200.445312 194.117188 L 196.675781 196.558594 C 196.480469 196.699219 196.277344 196.832031 196.070312 196.953125 L 175.105469 210.542969 C 172.324219 212.398438 168.542969 211.761719 166.53125 209.046875 L 135.558594 167.359375 L 135.289062 167.015625 C 132.929688 163.75 130.207031 161.34375 127.132812 159.808594 C 124.027344 158.253906 120.425781 157.5 116.339844 157.542969 L 116.316406 157.542969 L 81.40625 157.679688 C 81.1875 157.695312 80.964844 157.695312 80.738281 157.683594 C 77.222656 157.5 74.234375 157.925781 71.785156 158.964844 C 69.628906 159.875 67.792969 161.316406 66.289062 163.277344 C 66.175781 163.460938 66.042969 163.640625 65.90625 163.816406 L 23.546875 217.050781 C 23.421875 217.230469 23.285156 217.40625 23.136719 217.578125 C 22.015625 219.101562 21.582031 220.957031 21.785156 222.75 C 21.984375 224.507812 22.824219 226.203125 24.25 227.433594 C 24.429688 227.5625 24.601562 227.703125 24.769531 227.851562 L 30.929688 232.757812 L 30.921875 232.769531 L 31.226562 233.027344 L 53.558594 253.253906 C 53.800781 253.433594 54.027344 253.632812 54.246094 253.851562 L 54.25 253.851562 L 54.242188 253.863281 C 55.722656 255.089844 57.585938 255.652344 59.429688 255.5625 L 59.84375 255.527344 C 60.742188 254.9375 61.800781 254.570312 62.9375 254.503906 C 63.425781 254.210938 63.890625 253.859375 64.308594 253.445312 C 64.460938 253.253906 64.625 253.066406 64.804688 252.886719 L 64.808594 252.882812 L 64.816406 252.894531 C 66.046875 251.410156 66.605469 249.546875 66.515625 247.703125 C 66.425781 245.78125 65.605469 243.894531 64.089844 242.523438 L 44.332031 224.628906 L 44.296875 224.601562 C 41.5625 222.429688 41.109375 218.449219 43.28125 215.714844 Z M 454.273438 332.886719 C 449.132812 332.886719 444.480469 334.96875 441.113281 338.335938 C 437.75 341.699219 435.667969 346.355469 435.667969 351.492188 C 435.667969 356.632812 437.75 361.285156 441.113281 364.652344 C 444.480469 368.015625 449.132812 370.101562 454.273438 370.101562 C 459.410156 370.101562 464.066406 368.015625 467.429688 364.652344 C 470.796875 361.285156 472.878906 356.632812 472.878906 351.492188 C 472.878906 346.355469 470.796875 341.699219 467.429688 338.335938 C 464.066406 334.96875 459.410156 332.886719 454.273438 332.886719 Z M 432.15625 329.375 C 437.816406 323.714844 445.636719 320.210938 454.273438 320.210938 C 462.910156 320.210938 470.730469 323.714844 476.390625 329.375 C 482.050781 335.035156 485.554688 342.859375 485.554688 351.492188 C 485.554688 360.128906 482.050781 367.953125 476.390625 373.613281 C 470.730469 379.273438 462.910156 382.773438 454.273438 382.773438 C 445.636719 382.773438 437.816406 379.273438 432.15625 373.613281 C 426.492188 367.953125 422.992188 360.128906 422.992188 351.492188 C 422.992188 342.859375 426.492188 335.035156 432.15625 329.375 Z M 509.171875 455.792969 C 490.867188 462.472656 472.5625 465.8125 454.269531 465.8125 C 435.980469 465.8125 417.679688 462.472656 399.375 455.792969 C 397.238281 455.015625 395.484375 453.605469 394.277344 451.8125 C 394.179688 451.667969 394.09375 451.527344 394.011719 451.382812 C 392.984375 449.6875 392.449219 447.703125 392.523438 445.628906 L 392.53125 445.445312 C 393.164062 428.925781 400.265625 414.066406 411.375 403.347656 C 422.496094 392.617188 437.621094 386.011719 454.269531 386.011719 C 470.921875 386.011719 486.050781 392.613281 497.171875 403.347656 C 508.320312 414.105469 515.433594 429.035156 516.023438 445.628906 C 516.105469 447.878906 515.464844 450.019531 514.261719 451.804688 L 514.269531 451.8125 C 513.0625 453.605469 511.304688 455.015625 509.171875 455.792969 Z M 454.269531 453.136719 C 470.625 453.136719 486.976562 450.246094 503.316406 444.464844 C 502.480469 431.929688 496.921875 420.671875 488.40625 412.453125 C 479.574219 403.929688 467.539062 398.683594 454.269531 398.683594 C 441.003906 398.683594 428.96875 403.929688 420.136719 412.453125 C 411.625 420.671875 406.066406 431.929688 405.226562 444.464844 C 421.566406 450.246094 437.917969 453.136719 454.269531 453.136719 Z M 152.914062 444.464844 C 169.253906 450.246094 185.605469 453.136719 201.960938 453.136719 C 218.316406 453.136719 234.667969 450.246094 251.003906 444.464844 C 250.167969 431.929688 244.609375 420.671875 236.097656 412.453125 C 227.265625 403.929688 215.230469 398.683594 201.960938 398.683594 C 188.691406 398.683594 176.65625 403.929688 167.824219 412.453125 C 159.3125 420.671875 153.753906 431.929688 152.914062 444.464844 Z M 201.960938 465.8125 C 183.671875 465.8125 165.367188 462.472656 147.0625 455.792969 C 144.910156 455.007812 143.160156 453.613281 141.960938 451.835938 L 141.972656 451.828125 L 141.960938 451.8125 C 140.769531 450.042969 140.132812 447.90625 140.207031 445.652344 C 140.789062 429.050781 147.910156 414.109375 159.0625 403.347656 C 170.183594 392.613281 185.308594 386.011719 201.960938 386.011719 C 218.613281 386.011719 233.738281 392.617188 244.859375 403.347656 C 255.964844 414.066406 263.070312 428.925781 263.703125 445.445312 L 263.710938 445.628906 C 263.792969 447.914062 263.152344 450.066406 261.957031 451.835938 C 260.761719 453.609375 259.007812 455.011719 256.855469 455.792969 C 238.554688 462.472656 220.253906 465.8125 201.960938 465.8125 Z M 201.960938 320.210938 C 210.597656 320.210938 218.417969 323.714844 224.078125 329.375 C 229.738281 335.035156 233.242188 342.859375 233.242188 351.492188 C 233.242188 360.128906 229.738281 367.953125 224.078125 373.613281 C 218.417969 379.273438 210.597656 382.773438 201.960938 382.773438 C 193.324219 382.773438 185.503906 379.273438 179.84375 373.613281 C 174.183594 367.953125 170.679688 360.128906 170.679688 351.492188 C 170.679688 342.859375 174.183594 335.035156 179.84375 329.375 C 185.503906 323.714844 193.324219 320.210938 201.960938 320.210938 Z M 215.121094 338.335938 C 218.484375 341.699219 220.566406 346.355469 220.566406 351.492188 C 220.566406 356.632812 218.484375 361.285156 215.121094 364.652344 C 211.753906 368.015625 207.097656 370.101562 201.960938 370.101562 C 196.820312 370.101562 192.167969 368.015625 188.800781 364.652344 C 185.4375 361.285156 183.355469 356.632812 183.355469 351.492188 C 183.355469 346.355469 185.4375 341.699219 188.800781 338.335938 C 192.167969 334.96875 196.820312 332.886719 201.960938 332.886719 C 207.097656 332.886719 211.753906 334.96875 215.121094 338.335938 Z M 328.117188 332.886719 C 322.976562 332.886719 318.324219 334.96875 314.957031 338.335938 C 311.59375 341.699219 309.511719 346.355469 309.511719 351.492188 C 309.511719 356.632812 311.59375 361.285156 314.957031 364.652344 C 318.324219 368.015625 322.976562 370.101562 328.117188 370.101562 C 333.253906 370.101562 337.910156 368.015625 341.277344 364.652344 C 344.640625 361.285156 346.722656 356.632812 346.722656 351.492188 C 346.722656 346.355469 344.640625 341.699219 341.277344 338.335938 C 337.910156 334.96875 333.253906 332.886719 328.117188 332.886719 Z M 306 329.375 C 311.660156 323.714844 319.480469 320.210938 328.117188 320.210938 C 336.753906 320.210938 344.574219 323.714844 350.234375 329.375 C 355.894531 335.035156 359.398438 342.859375 359.398438 351.492188 C 359.398438 360.128906 355.894531 367.953125 350.234375 373.613281 C 344.574219 379.273438 336.753906 382.773438 328.117188 382.773438 C 319.480469 382.773438 311.660156 379.273438 306 373.613281 C 300.335938 367.953125 296.835938 360.128906 296.835938 351.492188 C 296.835938 342.859375 300.335938 335.035156 306 329.375 Z M 383.015625 455.792969 C 364.710938 462.472656 346.40625 465.8125 328.117188 465.8125 C 309.824219 465.8125 291.523438 462.472656 273.21875 455.792969 C 271.082031 455.015625 269.328125 453.605469 268.121094 451.8125 C 268.023438 451.667969 267.9375 451.527344 267.855469 451.382812 C 266.828125 449.6875 266.292969 447.703125 266.367188 445.628906 L 266.375 445.445312 C 267.007812 428.925781 274.109375 414.066406 285.21875 403.347656 C 296.339844 392.617188 311.464844 386.011719 328.113281 386.011719 C 344.765625 386.011719 359.894531 392.613281 371.015625 403.347656 C 382.164062 414.105469 389.277344 429.035156 389.867188 445.628906 C 389.949219 447.894531 389.3125 450.035156 388.117188 451.8125 C 388.011719 451.96875 387.902344 452.117188 387.785156 452.261719 C 386.597656 453.839844 384.96875 455.082031 383.015625 455.792969 Z M 328.117188 453.136719 C 344.46875 453.136719 360.820312 450.246094 377.160156 444.464844 C 376.324219 431.929688 370.765625 420.671875 362.25 412.453125 C 353.417969 403.929688 341.382812 398.683594 328.113281 398.683594 C 314.847656 398.683594 302.8125 403.929688 293.980469 412.453125 C 285.46875 420.671875 279.910156 431.929688 279.070312 444.464844 C 295.410156 450.246094 311.761719 453.136719 328.117188 453.136719 Z M 248.78125 123.324219 C 245.28125 123.324219 242.441406 120.488281 242.441406 116.988281 C 242.441406 113.488281 245.28125 110.648438 248.78125 110.648438 L 431.765625 110.648438 C 435.265625 110.648438 438.105469 113.488281 438.105469 116.988281 C 438.105469 120.488281 435.265625 123.324219 431.765625 123.324219 Z M 333.144531 178.285156 C 329.644531 178.285156 326.804688 175.449219 326.804688 171.949219 C 326.804688 168.449219 329.644531 165.609375 333.144531 165.609375 L 431.765625 165.609375 C 435.265625 165.609375 438.105469 168.449219 438.105469 171.949219 C 438.105469 175.449219 435.265625 178.285156 431.765625 178.285156 Z M 248.78125 233.246094 C 245.28125 233.246094 242.441406 230.40625 242.441406 226.910156 C 242.441406 223.410156 245.28125 220.570312 248.78125 220.570312 L 350.96875 220.570312 C 354.46875 220.570312 357.304688 223.410156 357.304688 226.910156 C 357.304688 230.40625 354.46875 233.246094 350.96875 233.246094 Z M 248.78125 178.285156 C 245.28125 178.285156 242.441406 175.449219 242.441406 171.949219 C 242.441406 168.449219 245.28125 165.609375 248.78125 165.609375 L 312.644531 165.609375 C 316.144531 165.609375 318.980469 168.449219 318.980469 171.949219 C 318.980469 175.449219 316.144531 178.285156 312.644531 178.285156 Z M 369.683594 233.246094 C 366.183594 233.246094 363.34375 230.40625 363.34375 226.910156 C 363.34375 223.410156 366.183594 220.570312 369.683594 220.570312 L 431.765625 220.570312 C 435.265625 220.570312 438.105469 223.410156 438.105469 226.910156 C 438.105469 230.40625 435.265625 233.246094 431.765625 233.246094 Z M 199.269531 227.773438 L 199.269531 273.148438 L 481.277344 273.148438 L 481.273438 273.148438 L 481.273438 273.144531 L 481.277344 273.148438 L 481.277344 70.75 L 199.269531 70.75 L 199.273438 70.753906 L 199.269531 70.753906 L 199.269531 106.796875 C 199.269531 110.292969 197.847656 113.460938 195.554688 115.753906 C 193.257812 118.046875 190.085938 119.46875 186.597656 119.46875 L 159.382812 119.46875 L 159.371094 119.464844 L 159.355469 119.492188 C 159.359375 119.515625 159.359375 119.472656 159.378906 119.492188 L 195.609375 156.164062 C 196.792969 157.363281 197.695312 158.71875 198.316406 160.230469 C 198.949219 161.773438 199.269531 163.386719 199.269531 165.042969 L 199.269531 180.964844 C 202.40625 180.121094 205.667969 180.0625 208.769531 180.730469 L 209.066406 180.800781 C 213.84375 181.914062 218.230469 184.753906 221.183594 189.085938 C 221.378906 189.34375 221.550781 189.613281 221.703125 189.886719 C 224.503906 194.453125 225.257812 199.746094 224.203125 204.632812 C 223.117188 209.6875 220.097656 214.335938 215.433594 217.34375 Z M 186.59375 188.039062 L 186.59375 165.042969 C 186.59375 165.027344 186.597656 165.023438 186.601562 165.023438 L 186.597656 165.023438 L 150.367188 128.351562 C 148.554688 126.519531 147.390625 124.273438 146.925781 121.867188 C 146.464844 119.480469 146.703125 116.976562 147.695312 114.601562 C 148.6875 112.21875 150.320312 110.265625 152.367188 108.902344 C 154.402344 107.546875 156.816406 106.796875 159.382812 106.796875 L 186.59375 106.796875 L 186.59375 106.792969 L 186.59375 106.796875 L 186.59375 70.75 C 186.59375 67.257812 188.015625 64.085938 190.3125 61.792969 C 192.605469 59.5 195.773438 58.074219 199.269531 58.074219 L 481.277344 58.074219 C 484.769531 58.074219 487.941406 59.5 490.234375 61.792969 C 492.527344 64.085938 493.953125 67.257812 493.953125 70.75 L 493.953125 273.148438 C 493.953125 276.644531 492.527344 279.8125 490.234375 282.105469 C 487.941406 284.398438 484.769531 285.824219 481.277344 285.824219 L 199.269531 285.824219 C 195.773438 285.824219 192.605469 284.398438 190.3125 282.105469 C 188.015625 279.8125 186.59375 276.644531 186.59375 273.148438 L 186.59375 236.277344 L 180.6875 240.652344 C 176.257812 243.925781 170.914062 245.097656 165.886719 244.34375 C 160.832031 243.585938 156.054688 240.90625 152.785156 236.484375 L 145.640625 226.828125 L 145.640625 281.949219 L 145.617188 281.949219 L 145.613281 357.972656 L 145.640625 357.972656 C 145.640625 364.929688 142.789062 371.257812 138.203125 375.847656 L 138.175781 375.871094 C 133.589844 380.457031 127.261719 383.308594 120.304688 383.308594 C 113.332031 383.308594 106.996094 380.460938 102.40625 375.871094 C 102.277344 375.742188 102.152344 375.601562 102.035156 375.464844 C 101.789062 375.210938 101.554688 374.953125 101.320312 374.6875 C 100.960938 375.09375 100.589844 375.488281 100.207031 375.871094 C 95.621094 380.457031 89.285156 383.308594 82.3125 383.308594 C 75.339844 383.308594 69.003906 380.460938 64.414062 375.871094 C 59.828125 371.285156 56.976562 364.949219 56.976562 357.972656 L 56.976562 268.105469 C 52.867188 267.6875 48.835938 265.996094 45.539062 263.011719 L 45.53125 263.003906 L 45.304688 262.796875 L 45.289062 262.8125 L 45.097656 262.613281 L 23.0625 242.65625 L 23.058594 242.65625 L 16.601562 237.519531 L 16.507812 237.441406 C 12.265625 234.023438 9.785156 229.183594 9.210938 224.136719 C 8.636719 219.074219 9.988281 213.777344 13.40625 209.480469 L 13.421875 209.460938 L 56.003906 155.945312 L 56.164062 155.753906 C 59.039062 151.949219 62.613281 149.136719 66.886719 147.332031 C 71.125 145.535156 75.953125 144.777344 81.355469 145.054688 L 116.242188 144.917969 C 122.332031 144.851562 127.847656 146.050781 132.777344 148.519531 C 137.742188 151.003906 141.996094 154.695312 145.535156 159.589844 L 145.707031 159.835938 L 173.140625 196.757812 Z M 481.277344 70.753906 L 481.273438 70.753906 L 481.273438 70.75 L 481.277344 70.75 Z M 199.269531 70.75 L 199.269531 70.753906 Z M 186.632812 165.035156 L 186.636719 165.042969 L 186.628906 165.042969 L 186.609375 165.027344 C 186.625 165.03125 186.625 165.015625 186.632812 165.035156 Z M 99.558594 69.773438 C 89.390625 69.773438 80.179688 73.894531 73.515625 80.5625 C 66.851562 87.226562 62.726562 96.433594 62.726562 106.601562 C 62.726562 116.769531 66.851562 125.980469 73.515625 132.644531 C 80.179688 139.308594 89.390625 143.433594 99.558594 143.433594 C 109.726562 143.433594 118.9375 139.308594 125.601562 132.644531 C 132.265625 125.980469 136.390625 116.769531 136.390625 106.601562 C 136.390625 96.652344 132.417969 87.601562 125.96875 80.957031 C 125.851562 80.820312 125.730469 80.6875 125.601562 80.5625 C 118.9375 73.894531 109.726562 69.773438 99.558594 69.773438 Z M 116.640625 89.519531 C 112.273438 85.152344 106.230469 82.449219 99.558594 82.449219 C 92.890625 82.449219 86.84375 85.152344 82.476562 89.519531 C 78.109375 93.890625 75.402344 99.933594 75.402344 106.601562 C 75.402344 113.273438 78.109375 119.316406 82.476562 123.683594 C 86.84375 128.054688 92.890625 130.757812 99.558594 130.757812 C 106.230469 130.757812 112.273438 128.054688 116.640625 123.683594 C 121.011719 119.316406 123.714844 113.273438 123.714844 106.601562 C 123.714844 100.058594 121.136719 94.136719 116.949219 89.808594 Z M 116.640625 89.519531 " fill-opacity="1" fill-rule="evenodd"/></g></svg>