<svg xmlns="http://www.w3.org/2000/svg" xmlns:xlink="http://www.w3.org/1999/xlink" width="1123" zoomAndPan="magnify" viewBox="0 0 842.25 1190.249948" height="1587" preserveAspectRatio="xMidYMid meet" version="1.0"><defs><g/><clipPath id="f740160bec"><path d="M 0 0.15625 L 841.5 0.15625 L 841.5 1189.347656 L 0 1189.347656 Z M 0 0.15625 " clip-rule="nonzero"/></clipPath><clipPath id="df9c682154"><path d="M 0 0.15625 L 841.289062 0.15625 L 841.289062 1189.042969 L 0 1189.042969 Z M 0 0.15625 " clip-rule="nonzero"/></clipPath><clipPath id="3a10c6422e"><rect x="0" width="842" y="0" height="1190"/></clipPath></defs><g clip-path="url(#f740160bec)"><path fill="#ffffff" d="M 0 0.15625 L 841.5 0.15625 L 841.5 1189.347656 L 0 1189.347656 Z M 0 0.15625 " fill-opacity="1" fill-rule="nonzero"/><g transform="matrix(1, 0, 0, 1, 0, 0.000000000000098033)"><g clip-path="url(#3a10c6422e)"><g clip-path="url(#df9c682154)"><path fill="#ffffff" d="M 0 0.15625 L 841.289062 0.15625 L 841.289062 1189.042969 L 0 1189.042969 Z M 0 0.15625 " fill-opacity="1" fill-rule="nonzero"/></g><g fill="#000000" fill-opacity="1"><g transform="translate(181.966046, 661.797495)"><g><path d="M 46.578125 -27.671875 C 39.441406 -23.117188 32.523438 -19.941406 25.828125 -18.140625 C 19.140625 -16.347656 13.03125 -15.695312 7.5 -16.1875 C 1.96875 -16.6875 -2.878906 -18.023438 -7.046875 -20.203125 L -4.5625 -41.015625 L -2.796875 -42.15625 C 3.234375 -39.519531 9.503906 -38.363281 16.015625 -38.6875 C 22.523438 -39.007812 28.96875 -41.207031 35.34375 -45.28125 C 40.800781 -48.757812 44.179688 -52.53125 45.484375 -56.59375 C 46.785156 -60.664062 46.144531 -64.722656 43.5625 -68.765625 C 42.007812 -71.203125 40.257812 -72.957031 38.3125 -74.03125 C 36.375 -75.113281 33.992188 -75.578125 31.171875 -75.421875 C 28.359375 -75.273438 24.921875 -74.503906 20.859375 -73.109375 L 5.671875 -67.6875 C -4.929688 -63.882812 -14.0625 -62.992188 -21.71875 -65.015625 C -29.382812 -67.035156 -35.726562 -71.96875 -40.75 -79.8125 C -44.457031 -85.632812 -46.265625 -91.675781 -46.171875 -97.9375 C -46.078125 -104.207031 -44.023438 -110.34375 -40.015625 -116.34375 C -36.015625 -122.34375 -30.140625 -127.816406 -22.390625 -132.765625 C -14.453125 -137.828125 -6.988281 -141.117188 0 -142.640625 C 7 -144.171875 13.828125 -144.023438 20.484375 -142.203125 L 19.234375 -121.9375 L 17.46875 -120.8125 C 12.59375 -122.007812 7.789062 -122.171875 3.0625 -121.296875 C -1.65625 -120.429688 -6.4375 -118.457031 -11.28125 -115.375 C -16.875 -111.800781 -20.492188 -108.097656 -22.140625 -104.265625 C -23.785156 -100.429688 -23.5 -96.773438 -21.28125 -93.296875 C -19.207031 -90.054688 -16.539062 -88.125 -13.28125 -87.5 C -10.019531 -86.882812 -5.523438 -87.640625 0.203125 -89.765625 L 15.53125 -95.59375 C 26.882812 -99.863281 36.425781 -100.910156 44.15625 -98.734375 C 51.882812 -96.566406 58.347656 -91.421875 63.546875 -83.296875 C 67.648438 -76.867188 69.835938 -70.382812 70.109375 -63.84375 C 70.378906 -57.300781 68.554688 -50.929688 64.640625 -44.734375 C 60.734375 -38.546875 54.710938 -32.859375 46.578125 -27.671875 Z M 46.578125 -27.671875 "/></g></g></g><g fill="#000000" fill-opacity="1"><g transform="translate(258.181778, 613.138444)"><g><path d="M 98.84375 -63.109375 L 77.421875 -49.4375 L 54.515625 -68.234375 L 15.0625 -43.046875 L 22.46875 -14.34375 L 1.546875 -0.984375 L -28.625 -126.6875 L -2.484375 -143.375 Z M -3.0625 -112.765625 L 9.640625 -63.65625 L 37.953125 -81.734375 L -1.3125 -113.875 Z M -3.0625 -112.765625 "/></g></g></g><g fill="#000000" fill-opacity="1"><g transform="translate(346.302748, 556.878633)"><g><path d="M 32.0625 -20.46875 L 13.375 -8.546875 L -52.375 -111.53125 L -25.734375 -128.53125 L 48.671875 -69.453125 L 50.15625 -70.40625 L 27.734375 -162.671875 L 53.71875 -179.265625 L 119.46875 -76.28125 L 100.171875 -63.953125 L 56.734375 -132 L 54.796875 -131.171875 L 74.609375 -47.625 L 57.625 -36.796875 L -9.8125 -89.9375 L -11.375 -88.515625 Z M 32.0625 -20.46875 "/></g></g></g><g fill="#000000" fill-opacity="1"><g transform="translate(466.969383, 479.840418)"><g><path d="M -12.5625 -136.9375 C -5.195312 -141.644531 1.960938 -144.320312 8.921875 -144.96875 C 15.890625 -145.613281 22.265625 -144.359375 28.046875 -141.203125 C 33.828125 -138.054688 38.769531 -133.265625 42.875 -126.828125 C 46.976562 -120.390625 49.234375 -113.894531 49.640625 -107.34375 C 50.054688 -100.800781 48.503906 -94.507812 44.984375 -88.46875 C 41.472656 -82.425781 36.035156 -77.050781 28.671875 -72.34375 L 9.21875 -59.9375 L 33.734375 -21.546875 L 13.375 -8.546875 L -52.375 -111.53125 Z M 15.6875 -86.765625 C 27.007812 -93.984375 29.238281 -102.972656 22.375 -113.734375 C 15.476562 -124.535156 6.367188 -126.328125 -4.953125 -119.109375 L -21.71875 -108.40625 L -1.078125 -76.0625 Z M 15.6875 -86.765625 "/></g></g></g><g fill="#000000" fill-opacity="1"><g transform="translate(548.820718, 427.583381)"><g><path d="M -32.015625 -124.53125 L 22.859375 -38.59375 L 69.15625 -68.140625 L 80.03125 -51.09375 L 13.375 -8.546875 L -52.375 -111.53125 Z M -32.015625 -124.53125 "/></g></g></g><g fill="#000000" fill-opacity="1"><g transform="translate(619.964408, 382.162517)"><g><path d="M 4.859375 -66.765625 L 22.859375 -38.59375 L 72.046875 -69.984375 L 82.921875 -52.9375 L 13.375 -8.546875 L -52.375 -111.53125 L 16.03125 -155.203125 L 26.90625 -138.171875 L -21.140625 -107.5 L -5.765625 -83.40625 L 36.21875 -110.203125 L 46.84375 -93.5625 Z M 4.859375 -66.765625 "/></g></g></g><g fill="#000000" fill-opacity="1"><g transform="translate(696.255224, 333.455529)"><g/></g></g><g fill="#000000" fill-opacity="1"><g transform="translate(234.532922, 811.048311)"><g><path d="M -12.5625 -136.9375 C -5.195312 -141.644531 1.960938 -144.320312 8.921875 -144.96875 C 15.890625 -145.613281 22.265625 -144.359375 28.046875 -141.203125 C 33.828125 -138.054688 38.769531 -133.265625 42.875 -126.828125 C 46.976562 -120.390625 49.234375 -113.894531 49.640625 -107.34375 C 50.054688 -100.800781 48.503906 -94.507812 44.984375 -88.46875 C 41.472656 -82.425781 36.035156 -77.050781 28.671875 -72.34375 L 9.21875 -59.9375 L 33.734375 -21.546875 L 13.375 -8.546875 L -52.375 -111.53125 Z M 15.6875 -86.765625 C 27.007812 -93.984375 29.238281 -102.972656 22.375 -113.734375 C 15.476562 -124.535156 6.367188 -126.328125 -4.953125 -119.109375 L -21.71875 -108.40625 L -1.078125 -76.0625 Z M 15.6875 -86.765625 "/></g></g></g><g fill="#000000" fill-opacity="1"><g transform="translate(316.384267, 758.791268)"><g><path d="M 57.078125 -34.375 C 47.640625 -28.351562 38.085938 -24.960938 28.421875 -24.203125 C 18.753906 -23.453125 9.347656 -25.726562 0.203125 -31.03125 C -8.929688 -36.332031 -17.257812 -44.878906 -24.78125 -56.671875 C -32.3125 -68.460938 -36.554688 -79.613281 -37.515625 -90.125 C -38.472656 -100.644531 -36.578125 -110.132812 -31.828125 -118.59375 C -27.085938 -127.050781 -20 -134.289062 -10.5625 -140.3125 C -1.125 -146.332031 8.40625 -149.722656 18.03125 -150.484375 C 27.664062 -151.242188 37.046875 -148.957031 46.171875 -143.625 C 55.304688 -138.289062 63.640625 -129.726562 71.171875 -117.9375 C 78.691406 -106.144531 82.953125 -94.984375 83.953125 -84.453125 C 84.960938 -73.921875 83.09375 -64.445312 78.34375 -56.03125 C 73.601562 -47.613281 66.515625 -40.394531 57.078125 -34.375 Z M 45.796875 -52.046875 C 54.535156 -57.617188 59.414062 -64.679688 60.4375 -73.234375 C 61.457031 -81.796875 58.039062 -92.226562 50.1875 -104.53125 C 42.332031 -116.832031 34.300781 -124.328125 26.09375 -127.015625 C 17.894531 -129.710938 9.425781 -128.273438 0.6875 -122.703125 C -8.09375 -117.097656 -12.992188 -110 -14.015625 -101.40625 C -15.046875 -92.820312 -11.632812 -82.378906 -3.78125 -70.078125 C 4.070312 -57.773438 12.101562 -50.289062 20.3125 -47.625 C 28.519531 -44.96875 37.015625 -46.441406 45.796875 -52.046875 Z M 45.796875 -52.046875 "/></g></g></g><g fill="#000000" fill-opacity="1"><g transform="translate(416.340024, 694.975673)"><g><path d="M 46.578125 -27.671875 C 39.441406 -23.117188 32.523438 -19.941406 25.828125 -18.140625 C 19.140625 -16.347656 13.03125 -15.695312 7.5 -16.1875 C 1.96875 -16.6875 -2.878906 -18.023438 -7.046875 -20.203125 L -4.5625 -41.015625 L -2.796875 -42.15625 C 3.234375 -39.519531 9.503906 -38.363281 16.015625 -38.6875 C 22.523438 -39.007812 28.96875 -41.207031 35.34375 -45.28125 C 40.800781 -48.757812 44.179688 -52.53125 45.484375 -56.59375 C 46.785156 -60.664062 46.144531 -64.722656 43.5625 -68.765625 C 42.007812 -71.203125 40.257812 -72.957031 38.3125 -74.03125 C 36.375 -75.113281 33.992188 -75.578125 31.171875 -75.421875 C 28.359375 -75.273438 24.921875 -74.503906 20.859375 -73.109375 L 5.671875 -67.6875 C -4.929688 -63.882812 -14.0625 -62.992188 -21.71875 -65.015625 C -29.382812 -67.035156 -35.726562 -71.96875 -40.75 -79.8125 C -44.457031 -85.632812 -46.265625 -91.675781 -46.171875 -97.9375 C -46.078125 -104.207031 -44.023438 -110.34375 -40.015625 -116.34375 C -36.015625 -122.34375 -30.140625 -127.816406 -22.390625 -132.765625 C -14.453125 -137.828125 -6.988281 -141.117188 0 -142.640625 C 7 -144.171875 13.828125 -144.023438 20.484375 -142.203125 L 19.234375 -121.9375 L 17.46875 -120.8125 C 12.59375 -122.007812 7.789062 -122.171875 3.0625 -121.296875 C -1.65625 -120.429688 -6.4375 -118.457031 -11.28125 -115.375 C -16.875 -111.800781 -20.492188 -108.097656 -22.140625 -104.265625 C -23.785156 -100.429688 -23.5 -96.773438 -21.28125 -93.296875 C -19.207031 -90.054688 -16.539062 -88.125 -13.28125 -87.5 C -10.019531 -86.882812 -5.523438 -87.640625 0.203125 -89.765625 L 15.53125 -95.59375 C 26.882812 -99.863281 36.425781 -100.910156 44.15625 -98.734375 C 51.882812 -96.566406 58.347656 -91.421875 63.546875 -83.296875 C 67.648438 -76.867188 69.835938 -70.382812 70.109375 -63.84375 C 70.378906 -57.300781 68.554688 -50.929688 64.640625 -44.734375 C 60.734375 -38.546875 54.710938 -32.859375 46.578125 -27.671875 Z M 46.578125 -27.671875 "/></g></g></g><g fill="#000000" fill-opacity="1"><g transform="translate(491.358155, 647.081217)"><g><path d="M 16.8125 -155.6875 L 27.734375 -138.578125 L -1.984375 -119.609375 L 52.84375 -33.734375 L 32.546875 -20.78125 L -22.28125 -106.65625 L -52.015625 -87.671875 L -62.9375 -104.78125 Z M 16.8125 -155.6875 "/></g></g></g><g fill="#000000" fill-opacity="1"><g transform="translate(564.474309, 600.401056)"><g><path d="M 4.859375 -66.765625 L 22.859375 -38.59375 L 72.046875 -69.984375 L 82.921875 -52.9375 L 13.375 -8.546875 L -52.375 -111.53125 L 16.03125 -155.203125 L 26.90625 -138.171875 L -21.140625 -107.5 L -5.765625 -83.40625 L 36.21875 -110.203125 L 46.84375 -93.5625 Z M 4.859375 -66.765625 "/></g></g></g><g fill="#000000" fill-opacity="1"><g transform="translate(640.760462, 551.697046)"><g><path d="M 13.375 -8.546875 L -52.375 -111.53125 L -11.015625 -137.921875 C -0.347656 -144.734375 9.257812 -147.414062 17.8125 -145.96875 C 26.375 -144.53125 33.410156 -139.492188 38.921875 -130.859375 C 42.910156 -124.609375 44.59375 -118.472656 43.96875 -112.453125 C 43.34375 -106.429688 40.554688 -100.359375 35.609375 -94.234375 L 36.5625 -92.75 C 40.695312 -93.414062 44.648438 -93 48.421875 -91.5 C 52.191406 -90.007812 56.707031 -87.109375 61.96875 -82.796875 L 91.859375 -58.640625 L 70.953125 -45.296875 L 41.21875 -69.65625 C 38.195312 -72.09375 35.492188 -73.753906 33.109375 -74.640625 C 30.722656 -75.523438 28.285156 -75.71875 25.796875 -75.21875 C 23.304688 -74.726562 20.460938 -73.460938 17.265625 -71.421875 L 6.34375 -64.453125 L 33.734375 -21.546875 Z M 14.578125 -92.421875 C 24.441406 -98.710938 26.4375 -106.457031 20.5625 -115.65625 C 14.59375 -125 6.675781 -126.523438 -3.1875 -120.234375 L -21.71875 -108.40625 L -3.953125 -80.59375 Z M 14.578125 -92.421875 "/></g></g></g></g></g></g></svg>